<?xml version="1.0" encoding="utf-8" standalone="no"?>
<!DOCTYPE svg PUBLIC "-//W3C//DTD SVG 1.1//EN"
  "http://www.w3.org/Graphics/SVG/1.1/DTD/svg11.dtd">
<svg xmlns:xlink="http://www.w3.org/1999/xlink" width="720pt" height="360pt" viewBox="0 0 720 360" xmlns="http://www.w3.org/2000/svg" version="1.1">
 <metadata>
  <rdf:RDF xmlns:dc="http://purl.org/dc/elements/1.1/" xmlns:cc="http://creativecommons.org/ns#" xmlns:rdf="http://www.w3.org/1999/02/22-rdf-syntax-ns#">
   <cc:Work>
    <dc:type rdf:resource="http://purl.org/dc/dcmitype/StillImage"/>
    <dc:date>2023-12-05T09:57:35.899263</dc:date>
    <dc:format>image/svg+xml</dc:format>
    <dc:creator>
     <cc:Agent>
      <dc:title>Matplotlib v3.7.2, https://matplotlib.org/</dc:title>
     </cc:Agent>
    </dc:creator>
   </cc:Work>
  </rdf:RDF>
 </metadata>
 <defs>
  <style type="text/css">*{stroke-linejoin: round; stroke-linecap: butt}</style>
 </defs>
 <g id="figure_1">
  <g id="patch_1">
   <path d="M 0 360 
L 720 360 
L 720 0 
L 0 0 
z
" style="fill: #ffffff"/>
  </g>
  <g id="axes_1">
   <g id="patch_2">
    <path d="M 90 320.4 
L 648 320.4 
L 648 43.2 
L 90 43.2 
z
" style="fill: #ffffff"/>
   </g>
   <g id="matplotlib.axis_1">
    <g id="xtick_1">
     <g id="line2d_1">
      <defs>
       <path id="mb7391791c7" d="M 0 0 
L 0 3.5 
" style="stroke: #000000; stroke-width: 0.8"/>
      </defs>
      <g>
       <use xlink:href="#mb7391791c7" x="105.011132" y="320.4" style="stroke: #000000; stroke-width: 0.8"/>
      </g>
     </g>
     <g id="text_1">
      <!-- 0 -->
      <g transform="translate(101.829882 334.998438) scale(0.1 -0.1)">
       <defs>
        <path id="DejaVuSans-30" d="M 2034 4250 
Q 1547 4250 1301 3770 
Q 1056 3291 1056 2328 
Q 1056 1369 1301 889 
Q 1547 409 2034 409 
Q 2525 409 2770 889 
Q 3016 1369 3016 2328 
Q 3016 3291 2770 3770 
Q 2525 4250 2034 4250 
z
M 2034 4750 
Q 2819 4750 3233 4129 
Q 3647 3509 3647 2328 
Q 3647 1150 3233 529 
Q 2819 -91 2034 -91 
Q 1250 -91 836 529 
Q 422 1150 422 2328 
Q 422 3509 836 4129 
Q 1250 4750 2034 4750 
z
" transform="scale(0.015625)"/>
       </defs>
       <use xlink:href="#DejaVuSans-30"/>
      </g>
     </g>
    </g>
    <g id="xtick_2">
     <g id="line2d_2">
      <g>
       <use xlink:href="#mb7391791c7" x="156.773655" y="320.4" style="stroke: #000000; stroke-width: 0.8"/>
      </g>
     </g>
     <g id="text_2">
      <!-- 5 -->
      <g transform="translate(153.592405 334.998438) scale(0.1 -0.1)">
       <defs>
        <path id="DejaVuSans-35" d="M 691 4666 
L 3169 4666 
L 3169 4134 
L 1269 4134 
L 1269 2991 
Q 1406 3038 1543 3061 
Q 1681 3084 1819 3084 
Q 2600 3084 3056 2656 
Q 3513 2228 3513 1497 
Q 3513 744 3044 326 
Q 2575 -91 1722 -91 
Q 1428 -91 1123 -41 
Q 819 9 494 109 
L 494 744 
Q 775 591 1075 516 
Q 1375 441 1709 441 
Q 2250 441 2565 725 
Q 2881 1009 2881 1497 
Q 2881 1984 2565 2268 
Q 2250 2553 1709 2553 
Q 1456 2553 1204 2497 
Q 953 2441 691 2322 
L 691 4666 
z
" transform="scale(0.015625)"/>
       </defs>
       <use xlink:href="#DejaVuSans-35"/>
      </g>
     </g>
    </g>
    <g id="xtick_3">
     <g id="line2d_3">
      <g>
       <use xlink:href="#mb7391791c7" x="208.536178" y="320.4" style="stroke: #000000; stroke-width: 0.8"/>
      </g>
     </g>
     <g id="text_3">
      <!-- 10 -->
      <g transform="translate(202.173678 334.998438) scale(0.1 -0.1)">
       <defs>
        <path id="DejaVuSans-31" d="M 794 531 
L 1825 531 
L 1825 4091 
L 703 3866 
L 703 4441 
L 1819 4666 
L 2450 4666 
L 2450 531 
L 3481 531 
L 3481 0 
L 794 0 
L 794 531 
z
" transform="scale(0.015625)"/>
       </defs>
       <use xlink:href="#DejaVuSans-31"/>
       <use xlink:href="#DejaVuSans-30" x="63.623047"/>
      </g>
     </g>
    </g>
    <g id="xtick_4">
     <g id="line2d_4">
      <g>
       <use xlink:href="#mb7391791c7" x="260.298701" y="320.4" style="stroke: #000000; stroke-width: 0.8"/>
      </g>
     </g>
     <g id="text_4">
      <!-- 15 -->
      <g transform="translate(253.936201 334.998438) scale(0.1 -0.1)">
       <use xlink:href="#DejaVuSans-31"/>
       <use xlink:href="#DejaVuSans-35" x="63.623047"/>
      </g>
     </g>
    </g>
    <g id="xtick_5">
     <g id="line2d_5">
      <g>
       <use xlink:href="#mb7391791c7" x="312.061224" y="320.4" style="stroke: #000000; stroke-width: 0.8"/>
      </g>
     </g>
     <g id="text_5">
      <!-- 20 -->
      <g transform="translate(305.698724 334.998438) scale(0.1 -0.1)">
       <defs>
        <path id="DejaVuSans-32" d="M 1228 531 
L 3431 531 
L 3431 0 
L 469 0 
L 469 531 
Q 828 903 1448 1529 
Q 2069 2156 2228 2338 
Q 2531 2678 2651 2914 
Q 2772 3150 2772 3378 
Q 2772 3750 2511 3984 
Q 2250 4219 1831 4219 
Q 1534 4219 1204 4116 
Q 875 4013 500 3803 
L 500 4441 
Q 881 4594 1212 4672 
Q 1544 4750 1819 4750 
Q 2544 4750 2975 4387 
Q 3406 4025 3406 3419 
Q 3406 3131 3298 2873 
Q 3191 2616 2906 2266 
Q 2828 2175 2409 1742 
Q 1991 1309 1228 531 
z
" transform="scale(0.015625)"/>
       </defs>
       <use xlink:href="#DejaVuSans-32"/>
       <use xlink:href="#DejaVuSans-30" x="63.623047"/>
      </g>
     </g>
    </g>
    <g id="xtick_6">
     <g id="line2d_6">
      <g>
       <use xlink:href="#mb7391791c7" x="363.823748" y="320.4" style="stroke: #000000; stroke-width: 0.8"/>
      </g>
     </g>
     <g id="text_6">
      <!-- 25 -->
      <g transform="translate(357.461248 334.998438) scale(0.1 -0.1)">
       <use xlink:href="#DejaVuSans-32"/>
       <use xlink:href="#DejaVuSans-35" x="63.623047"/>
      </g>
     </g>
    </g>
    <g id="xtick_7">
     <g id="line2d_7">
      <g>
       <use xlink:href="#mb7391791c7" x="415.586271" y="320.4" style="stroke: #000000; stroke-width: 0.8"/>
      </g>
     </g>
     <g id="text_7">
      <!-- 30 -->
      <g transform="translate(409.223771 334.998438) scale(0.1 -0.1)">
       <defs>
        <path id="DejaVuSans-33" d="M 2597 2516 
Q 3050 2419 3304 2112 
Q 3559 1806 3559 1356 
Q 3559 666 3084 287 
Q 2609 -91 1734 -91 
Q 1441 -91 1130 -33 
Q 819 25 488 141 
L 488 750 
Q 750 597 1062 519 
Q 1375 441 1716 441 
Q 2309 441 2620 675 
Q 2931 909 2931 1356 
Q 2931 1769 2642 2001 
Q 2353 2234 1838 2234 
L 1294 2234 
L 1294 2753 
L 1863 2753 
Q 2328 2753 2575 2939 
Q 2822 3125 2822 3475 
Q 2822 3834 2567 4026 
Q 2313 4219 1838 4219 
Q 1578 4219 1281 4162 
Q 984 4106 628 3988 
L 628 4550 
Q 988 4650 1302 4700 
Q 1616 4750 1894 4750 
Q 2613 4750 3031 4423 
Q 3450 4097 3450 3541 
Q 3450 3153 3228 2886 
Q 3006 2619 2597 2516 
z
" transform="scale(0.015625)"/>
       </defs>
       <use xlink:href="#DejaVuSans-33"/>
       <use xlink:href="#DejaVuSans-30" x="63.623047"/>
      </g>
     </g>
    </g>
    <g id="xtick_8">
     <g id="line2d_8">
      <g>
       <use xlink:href="#mb7391791c7" x="467.348794" y="320.4" style="stroke: #000000; stroke-width: 0.8"/>
      </g>
     </g>
     <g id="text_8">
      <!-- 35 -->
      <g transform="translate(460.986294 334.998438) scale(0.1 -0.1)">
       <use xlink:href="#DejaVuSans-33"/>
       <use xlink:href="#DejaVuSans-35" x="63.623047"/>
      </g>
     </g>
    </g>
    <g id="xtick_9">
     <g id="line2d_9">
      <g>
       <use xlink:href="#mb7391791c7" x="519.111317" y="320.4" style="stroke: #000000; stroke-width: 0.8"/>
      </g>
     </g>
     <g id="text_9">
      <!-- 40 -->
      <g transform="translate(512.748817 334.998438) scale(0.1 -0.1)">
       <defs>
        <path id="DejaVuSans-34" d="M 2419 4116 
L 825 1625 
L 2419 1625 
L 2419 4116 
z
M 2253 4666 
L 3047 4666 
L 3047 1625 
L 3713 1625 
L 3713 1100 
L 3047 1100 
L 3047 0 
L 2419 0 
L 2419 1100 
L 313 1100 
L 313 1709 
L 2253 4666 
z
" transform="scale(0.015625)"/>
       </defs>
       <use xlink:href="#DejaVuSans-34"/>
       <use xlink:href="#DejaVuSans-30" x="63.623047"/>
      </g>
     </g>
    </g>
    <g id="xtick_10">
     <g id="line2d_10">
      <g>
       <use xlink:href="#mb7391791c7" x="570.87384" y="320.4" style="stroke: #000000; stroke-width: 0.8"/>
      </g>
     </g>
     <g id="text_10">
      <!-- 45 -->
      <g transform="translate(564.51134 334.998438) scale(0.1 -0.1)">
       <use xlink:href="#DejaVuSans-34"/>
       <use xlink:href="#DejaVuSans-35" x="63.623047"/>
      </g>
     </g>
    </g>
    <g id="text_11">
     <!-- Epochs -->
     <g transform="translate(351.084375 348.676562) scale(0.1 -0.1)">
      <defs>
       <path id="DejaVuSans-45" d="M 628 4666 
L 3578 4666 
L 3578 4134 
L 1259 4134 
L 1259 2753 
L 3481 2753 
L 3481 2222 
L 1259 2222 
L 1259 531 
L 3634 531 
L 3634 0 
L 628 0 
L 628 4666 
z
" transform="scale(0.015625)"/>
       <path id="DejaVuSans-70" d="M 1159 525 
L 1159 -1331 
L 581 -1331 
L 581 3500 
L 1159 3500 
L 1159 2969 
Q 1341 3281 1617 3432 
Q 1894 3584 2278 3584 
Q 2916 3584 3314 3078 
Q 3713 2572 3713 1747 
Q 3713 922 3314 415 
Q 2916 -91 2278 -91 
Q 1894 -91 1617 61 
Q 1341 213 1159 525 
z
M 3116 1747 
Q 3116 2381 2855 2742 
Q 2594 3103 2138 3103 
Q 1681 3103 1420 2742 
Q 1159 2381 1159 1747 
Q 1159 1113 1420 752 
Q 1681 391 2138 391 
Q 2594 391 2855 752 
Q 3116 1113 3116 1747 
z
" transform="scale(0.015625)"/>
       <path id="DejaVuSans-6f" d="M 1959 3097 
Q 1497 3097 1228 2736 
Q 959 2375 959 1747 
Q 959 1119 1226 758 
Q 1494 397 1959 397 
Q 2419 397 2687 759 
Q 2956 1122 2956 1747 
Q 2956 2369 2687 2733 
Q 2419 3097 1959 3097 
z
M 1959 3584 
Q 2709 3584 3137 3096 
Q 3566 2609 3566 1747 
Q 3566 888 3137 398 
Q 2709 -91 1959 -91 
Q 1206 -91 779 398 
Q 353 888 353 1747 
Q 353 2609 779 3096 
Q 1206 3584 1959 3584 
z
" transform="scale(0.015625)"/>
       <path id="DejaVuSans-63" d="M 3122 3366 
L 3122 2828 
Q 2878 2963 2633 3030 
Q 2388 3097 2138 3097 
Q 1578 3097 1268 2742 
Q 959 2388 959 1747 
Q 959 1106 1268 751 
Q 1578 397 2138 397 
Q 2388 397 2633 464 
Q 2878 531 3122 666 
L 3122 134 
Q 2881 22 2623 -34 
Q 2366 -91 2075 -91 
Q 1284 -91 818 406 
Q 353 903 353 1747 
Q 353 2603 823 3093 
Q 1294 3584 2113 3584 
Q 2378 3584 2631 3529 
Q 2884 3475 3122 3366 
z
" transform="scale(0.015625)"/>
       <path id="DejaVuSans-68" d="M 3513 2113 
L 3513 0 
L 2938 0 
L 2938 2094 
Q 2938 2591 2744 2837 
Q 2550 3084 2163 3084 
Q 1697 3084 1428 2787 
Q 1159 2491 1159 1978 
L 1159 0 
L 581 0 
L 581 4863 
L 1159 4863 
L 1159 2956 
Q 1366 3272 1645 3428 
Q 1925 3584 2291 3584 
Q 2894 3584 3203 3211 
Q 3513 2838 3513 2113 
z
" transform="scale(0.015625)"/>
       <path id="DejaVuSans-73" d="M 2834 3397 
L 2834 2853 
Q 2591 2978 2328 3040 
Q 2066 3103 1784 3103 
Q 1356 3103 1142 2972 
Q 928 2841 928 2578 
Q 928 2378 1081 2264 
Q 1234 2150 1697 2047 
L 1894 2003 
Q 2506 1872 2764 1633 
Q 3022 1394 3022 966 
Q 3022 478 2636 193 
Q 2250 -91 1575 -91 
Q 1294 -91 989 -36 
Q 684 19 347 128 
L 347 722 
Q 666 556 975 473 
Q 1284 391 1588 391 
Q 1994 391 2212 530 
Q 2431 669 2431 922 
Q 2431 1156 2273 1281 
Q 2116 1406 1581 1522 
L 1381 1569 
Q 847 1681 609 1914 
Q 372 2147 372 2553 
Q 372 3047 722 3315 
Q 1072 3584 1716 3584 
Q 2034 3584 2315 3537 
Q 2597 3491 2834 3397 
z
" transform="scale(0.015625)"/>
      </defs>
      <use xlink:href="#DejaVuSans-45"/>
      <use xlink:href="#DejaVuSans-70" x="63.183594"/>
      <use xlink:href="#DejaVuSans-6f" x="126.660156"/>
      <use xlink:href="#DejaVuSans-63" x="187.841797"/>
      <use xlink:href="#DejaVuSans-68" x="242.822266"/>
      <use xlink:href="#DejaVuSans-73" x="306.201172"/>
     </g>
    </g>
   </g>
   <g id="matplotlib.axis_2">
    <g id="ytick_1">
     <g id="line2d_11">
      <defs>
       <path id="m70628fee6f" d="M 0 0 
L -3.5 0 
" style="stroke: #000000; stroke-width: 0.8"/>
      </defs>
      <g>
       <use xlink:href="#m70628fee6f" x="90" y="286.144754" style="stroke: #000000; stroke-width: 0.8"/>
      </g>
     </g>
     <g id="text_12">
      <!-- 0.2 -->
      <g transform="translate(67.096875 289.943973) scale(0.1 -0.1)">
       <defs>
        <path id="DejaVuSans-2e" d="M 684 794 
L 1344 794 
L 1344 0 
L 684 0 
L 684 794 
z
" transform="scale(0.015625)"/>
       </defs>
       <use xlink:href="#DejaVuSans-30"/>
       <use xlink:href="#DejaVuSans-2e" x="63.623047"/>
       <use xlink:href="#DejaVuSans-32" x="95.410156"/>
      </g>
     </g>
    </g>
    <g id="ytick_2">
     <g id="line2d_12">
      <g>
       <use xlink:href="#m70628fee6f" x="90" y="230.114796" style="stroke: #000000; stroke-width: 0.8"/>
      </g>
     </g>
     <g id="text_13">
      <!-- 0.3 -->
      <g transform="translate(67.096875 233.914015) scale(0.1 -0.1)">
       <use xlink:href="#DejaVuSans-30"/>
       <use xlink:href="#DejaVuSans-2e" x="63.623047"/>
       <use xlink:href="#DejaVuSans-33" x="95.410156"/>
      </g>
     </g>
    </g>
    <g id="ytick_3">
     <g id="line2d_13">
      <g>
       <use xlink:href="#m70628fee6f" x="90" y="174.084839" style="stroke: #000000; stroke-width: 0.8"/>
      </g>
     </g>
     <g id="text_14">
      <!-- 0.4 -->
      <g transform="translate(67.096875 177.884057) scale(0.1 -0.1)">
       <use xlink:href="#DejaVuSans-30"/>
       <use xlink:href="#DejaVuSans-2e" x="63.623047"/>
       <use xlink:href="#DejaVuSans-34" x="95.410156"/>
      </g>
     </g>
    </g>
    <g id="ytick_4">
     <g id="line2d_14">
      <g>
       <use xlink:href="#m70628fee6f" x="90" y="118.054881" style="stroke: #000000; stroke-width: 0.8"/>
      </g>
     </g>
     <g id="text_15">
      <!-- 0.5 -->
      <g transform="translate(67.096875 121.8541) scale(0.1 -0.1)">
       <use xlink:href="#DejaVuSans-30"/>
       <use xlink:href="#DejaVuSans-2e" x="63.623047"/>
       <use xlink:href="#DejaVuSans-35" x="95.410156"/>
      </g>
     </g>
    </g>
    <g id="ytick_5">
     <g id="line2d_15">
      <g>
       <use xlink:href="#m70628fee6f" x="90" y="62.024923" style="stroke: #000000; stroke-width: 0.8"/>
      </g>
     </g>
     <g id="text_16">
      <!-- 0.6 -->
      <g transform="translate(67.096875 65.824142) scale(0.1 -0.1)">
       <defs>
        <path id="DejaVuSans-36" d="M 2113 2584 
Q 1688 2584 1439 2293 
Q 1191 2003 1191 1497 
Q 1191 994 1439 701 
Q 1688 409 2113 409 
Q 2538 409 2786 701 
Q 3034 994 3034 1497 
Q 3034 2003 2786 2293 
Q 2538 2584 2113 2584 
z
M 3366 4563 
L 3366 3988 
Q 3128 4100 2886 4159 
Q 2644 4219 2406 4219 
Q 1781 4219 1451 3797 
Q 1122 3375 1075 2522 
Q 1259 2794 1537 2939 
Q 1816 3084 2150 3084 
Q 2853 3084 3261 2657 
Q 3669 2231 3669 1497 
Q 3669 778 3244 343 
Q 2819 -91 2113 -91 
Q 1303 -91 875 529 
Q 447 1150 447 2328 
Q 447 3434 972 4092 
Q 1497 4750 2381 4750 
Q 2619 4750 2861 4703 
Q 3103 4656 3366 4563 
z
" transform="scale(0.015625)"/>
       </defs>
       <use xlink:href="#DejaVuSans-30"/>
       <use xlink:href="#DejaVuSans-2e" x="63.623047"/>
       <use xlink:href="#DejaVuSans-36" x="95.410156"/>
      </g>
     </g>
    </g>
    <g id="text_17">
     <!-- Loss -->
     <g transform="translate(61.017187 192.767187) rotate(-90) scale(0.1 -0.1)">
      <defs>
       <path id="DejaVuSans-4c" d="M 628 4666 
L 1259 4666 
L 1259 531 
L 3531 531 
L 3531 0 
L 628 0 
L 628 4666 
z
" transform="scale(0.015625)"/>
      </defs>
      <use xlink:href="#DejaVuSans-4c"/>
      <use xlink:href="#DejaVuSans-6f" x="53.962891"/>
      <use xlink:href="#DejaVuSans-73" x="115.144531"/>
      <use xlink:href="#DejaVuSans-73" x="167.244141"/>
     </g>
    </g>
   </g>
   <g id="line2d_16">
    <path d="M 115.363636 55.8 
L 125.716141 83.43805 
L 136.068646 115.188327 
L 146.42115 153.553362 
L 156.773655 186.445352 
L 167.12616 207.662279 
L 177.478664 220.246532 
L 187.831169 233.721692 
L 198.183673 237.200531 
L 208.536178 246.668989 
L 218.888683 252.769855 
L 229.241187 256.299382 
L 239.593692 258.789296 
L 249.946197 261.940859 
L 260.298701 263.595247 
L 270.651206 266.865629 
L 281.003711 269.462203 
L 291.356215 275.638433 
L 301.70872 272.670599 
L 312.061224 275.307737 
L 322.413729 279.603106 
L 332.766234 278.989511 
L 343.118738 284.553876 
L 353.471243 282.277038 
L 363.823748 284.283236 
L 374.176252 289.151179 
L 384.528757 290.88616 
L 394.881262 287.425157 
L 405.233766 289.407052 
L 415.586271 293.298072 
L 425.938776 293.657191 
L 436.29128 293.423977 
L 446.643785 294.18676 
L 456.996289 294.168836 
L 467.348794 296.55805 
L 477.701299 298.750181 
L 488.053803 300.305506 
L 498.406308 300.404378 
L 508.758813 299.941697 
L 519.111317 300.992285 
L 529.463822 301.819263 
L 539.816327 301.700465 
L 550.168831 303.664413 
L 560.521336 303.988126 
L 570.87384 307.26099 
L 581.226345 305.113277 
L 591.57885 307.405746 
L 601.931354 307.084693 
L 612.283859 305.570491 
L 622.636364 305.276355 
" clip-path="url(#p8a931e1034)" style="fill: none; stroke: #1f77b4; stroke-width: 1.5; stroke-linecap: square"/>
    <defs>
     <path id="mf16308dc6a" d="M 0 1.5 
C 0.397805 1.5 0.77937 1.341951 1.06066 1.06066 
C 1.341951 0.77937 1.5 0.397805 1.5 0 
C 1.5 -0.397805 1.341951 -0.77937 1.06066 -1.06066 
C 0.77937 -1.341951 0.397805 -1.5 0 -1.5 
C -0.397805 -1.5 -0.77937 -1.341951 -1.06066 -1.06066 
C -1.341951 -0.77937 -1.5 -0.397805 -1.5 0 
C -1.5 0.397805 -1.341951 0.77937 -1.06066 1.06066 
C -0.77937 1.341951 -0.397805 1.5 0 1.5 
z
" style="stroke: #1f77b4"/>
    </defs>
    <g clip-path="url(#p8a931e1034)">
     <use xlink:href="#mf16308dc6a" x="115.363636" y="55.8" style="fill: #1f77b4; stroke: #1f77b4"/>
     <use xlink:href="#mf16308dc6a" x="125.716141" y="83.43805" style="fill: #1f77b4; stroke: #1f77b4"/>
     <use xlink:href="#mf16308dc6a" x="136.068646" y="115.188327" style="fill: #1f77b4; stroke: #1f77b4"/>
     <use xlink:href="#mf16308dc6a" x="146.42115" y="153.553362" style="fill: #1f77b4; stroke: #1f77b4"/>
     <use xlink:href="#mf16308dc6a" x="156.773655" y="186.445352" style="fill: #1f77b4; stroke: #1f77b4"/>
     <use xlink:href="#mf16308dc6a" x="167.12616" y="207.662279" style="fill: #1f77b4; stroke: #1f77b4"/>
     <use xlink:href="#mf16308dc6a" x="177.478664" y="220.246532" style="fill: #1f77b4; stroke: #1f77b4"/>
     <use xlink:href="#mf16308dc6a" x="187.831169" y="233.721692" style="fill: #1f77b4; stroke: #1f77b4"/>
     <use xlink:href="#mf16308dc6a" x="198.183673" y="237.200531" style="fill: #1f77b4; stroke: #1f77b4"/>
     <use xlink:href="#mf16308dc6a" x="208.536178" y="246.668989" style="fill: #1f77b4; stroke: #1f77b4"/>
     <use xlink:href="#mf16308dc6a" x="218.888683" y="252.769855" style="fill: #1f77b4; stroke: #1f77b4"/>
     <use xlink:href="#mf16308dc6a" x="229.241187" y="256.299382" style="fill: #1f77b4; stroke: #1f77b4"/>
     <use xlink:href="#mf16308dc6a" x="239.593692" y="258.789296" style="fill: #1f77b4; stroke: #1f77b4"/>
     <use xlink:href="#mf16308dc6a" x="249.946197" y="261.940859" style="fill: #1f77b4; stroke: #1f77b4"/>
     <use xlink:href="#mf16308dc6a" x="260.298701" y="263.595247" style="fill: #1f77b4; stroke: #1f77b4"/>
     <use xlink:href="#mf16308dc6a" x="270.651206" y="266.865629" style="fill: #1f77b4; stroke: #1f77b4"/>
     <use xlink:href="#mf16308dc6a" x="281.003711" y="269.462203" style="fill: #1f77b4; stroke: #1f77b4"/>
     <use xlink:href="#mf16308dc6a" x="291.356215" y="275.638433" style="fill: #1f77b4; stroke: #1f77b4"/>
     <use xlink:href="#mf16308dc6a" x="301.70872" y="272.670599" style="fill: #1f77b4; stroke: #1f77b4"/>
     <use xlink:href="#mf16308dc6a" x="312.061224" y="275.307737" style="fill: #1f77b4; stroke: #1f77b4"/>
     <use xlink:href="#mf16308dc6a" x="322.413729" y="279.603106" style="fill: #1f77b4; stroke: #1f77b4"/>
     <use xlink:href="#mf16308dc6a" x="332.766234" y="278.989511" style="fill: #1f77b4; stroke: #1f77b4"/>
     <use xlink:href="#mf16308dc6a" x="343.118738" y="284.553876" style="fill: #1f77b4; stroke: #1f77b4"/>
     <use xlink:href="#mf16308dc6a" x="353.471243" y="282.277038" style="fill: #1f77b4; stroke: #1f77b4"/>
     <use xlink:href="#mf16308dc6a" x="363.823748" y="284.283236" style="fill: #1f77b4; stroke: #1f77b4"/>
     <use xlink:href="#mf16308dc6a" x="374.176252" y="289.151179" style="fill: #1f77b4; stroke: #1f77b4"/>
     <use xlink:href="#mf16308dc6a" x="384.528757" y="290.88616" style="fill: #1f77b4; stroke: #1f77b4"/>
     <use xlink:href="#mf16308dc6a" x="394.881262" y="287.425157" style="fill: #1f77b4; stroke: #1f77b4"/>
     <use xlink:href="#mf16308dc6a" x="405.233766" y="289.407052" style="fill: #1f77b4; stroke: #1f77b4"/>
     <use xlink:href="#mf16308dc6a" x="415.586271" y="293.298072" style="fill: #1f77b4; stroke: #1f77b4"/>
     <use xlink:href="#mf16308dc6a" x="425.938776" y="293.657191" style="fill: #1f77b4; stroke: #1f77b4"/>
     <use xlink:href="#mf16308dc6a" x="436.29128" y="293.423977" style="fill: #1f77b4; stroke: #1f77b4"/>
     <use xlink:href="#mf16308dc6a" x="446.643785" y="294.18676" style="fill: #1f77b4; stroke: #1f77b4"/>
     <use xlink:href="#mf16308dc6a" x="456.996289" y="294.168836" style="fill: #1f77b4; stroke: #1f77b4"/>
     <use xlink:href="#mf16308dc6a" x="467.348794" y="296.55805" style="fill: #1f77b4; stroke: #1f77b4"/>
     <use xlink:href="#mf16308dc6a" x="477.701299" y="298.750181" style="fill: #1f77b4; stroke: #1f77b4"/>
     <use xlink:href="#mf16308dc6a" x="488.053803" y="300.305506" style="fill: #1f77b4; stroke: #1f77b4"/>
     <use xlink:href="#mf16308dc6a" x="498.406308" y="300.404378" style="fill: #1f77b4; stroke: #1f77b4"/>
     <use xlink:href="#mf16308dc6a" x="508.758813" y="299.941697" style="fill: #1f77b4; stroke: #1f77b4"/>
     <use xlink:href="#mf16308dc6a" x="519.111317" y="300.992285" style="fill: #1f77b4; stroke: #1f77b4"/>
     <use xlink:href="#mf16308dc6a" x="529.463822" y="301.819263" style="fill: #1f77b4; stroke: #1f77b4"/>
     <use xlink:href="#mf16308dc6a" x="539.816327" y="301.700465" style="fill: #1f77b4; stroke: #1f77b4"/>
     <use xlink:href="#mf16308dc6a" x="550.168831" y="303.664413" style="fill: #1f77b4; stroke: #1f77b4"/>
     <use xlink:href="#mf16308dc6a" x="560.521336" y="303.988126" style="fill: #1f77b4; stroke: #1f77b4"/>
     <use xlink:href="#mf16308dc6a" x="570.87384" y="307.26099" style="fill: #1f77b4; stroke: #1f77b4"/>
     <use xlink:href="#mf16308dc6a" x="581.226345" y="305.113277" style="fill: #1f77b4; stroke: #1f77b4"/>
     <use xlink:href="#mf16308dc6a" x="591.57885" y="307.405746" style="fill: #1f77b4; stroke: #1f77b4"/>
     <use xlink:href="#mf16308dc6a" x="601.931354" y="307.084693" style="fill: #1f77b4; stroke: #1f77b4"/>
     <use xlink:href="#mf16308dc6a" x="612.283859" y="305.570491" style="fill: #1f77b4; stroke: #1f77b4"/>
     <use xlink:href="#mf16308dc6a" x="622.636364" y="305.276355" style="fill: #1f77b4; stroke: #1f77b4"/>
    </g>
   </g>
   <g id="line2d_17">
    <path d="M 115.363636 83.046609 
L 125.716141 112.746365 
L 136.068646 121.089741 
L 146.42115 188.14669 
L 156.773655 223.524582 
L 167.12616 235.510202 
L 177.478664 246.022086 
L 187.831169 252.959753 
L 198.183673 265.227437 
L 208.536178 264.434848 
L 218.888683 274.599276 
L 229.241187 267.93288 
L 239.593692 284.496893 
L 249.946197 281.637333 
L 260.298701 286.011159 
L 270.651206 292.020763 
L 281.003711 283.192375 
L 291.356215 290.345485 
L 301.70872 292.887188 
L 312.061224 296.369464 
L 322.413729 297.14816 
L 332.766234 292.456876 
L 343.118738 282.460216 
L 353.471243 286.734835 
L 363.823748 297.661374 
L 374.176252 301.523294 
L 384.528757 294.477112 
L 394.881262 299.595526 
L 405.233766 300.956986 
L 415.586271 298.464351 
L 425.938776 301.892134 
L 436.29128 302.338854 
L 446.643785 297.602575 
L 456.996289 302.829823 
L 467.348794 288.893835 
L 477.701299 307.8 
L 488.053803 301.631493 
L 498.406308 307.673638 
L 508.758813 307.40539 
L 519.111317 301.883306 
L 529.463822 300.232894 
L 539.816327 304.493154 
L 550.168831 302.834749 
L 560.521336 307.325536 
L 570.87384 303.93386 
L 581.226345 304.826619 
L 591.57885 304.86827 
L 601.931354 302.964384 
L 612.283859 304.064909 
L 622.636364 306.233157 
" clip-path="url(#p8a931e1034)" style="fill: none; stroke: #ff7f0e; stroke-width: 1.5; stroke-linecap: square"/>
    <defs>
     <path id="m7472e0df00" d="M 0 1.5 
C 0.397805 1.5 0.77937 1.341951 1.06066 1.06066 
C 1.341951 0.77937 1.5 0.397805 1.5 0 
C 1.5 -0.397805 1.341951 -0.77937 1.06066 -1.06066 
C 0.77937 -1.341951 0.397805 -1.5 0 -1.5 
C -0.397805 -1.5 -0.77937 -1.341951 -1.06066 -1.06066 
C -1.341951 -0.77937 -1.5 -0.397805 -1.5 0 
C -1.5 0.397805 -1.341951 0.77937 -1.06066 1.06066 
C -0.77937 1.341951 -0.397805 1.5 0 1.5 
z
" style="stroke: #ff7f0e"/>
    </defs>
    <g clip-path="url(#p8a931e1034)">
     <use xlink:href="#m7472e0df00" x="115.363636" y="83.046609" style="fill: #ff7f0e; stroke: #ff7f0e"/>
     <use xlink:href="#m7472e0df00" x="125.716141" y="112.746365" style="fill: #ff7f0e; stroke: #ff7f0e"/>
     <use xlink:href="#m7472e0df00" x="136.068646" y="121.089741" style="fill: #ff7f0e; stroke: #ff7f0e"/>
     <use xlink:href="#m7472e0df00" x="146.42115" y="188.14669" style="fill: #ff7f0e; stroke: #ff7f0e"/>
     <use xlink:href="#m7472e0df00" x="156.773655" y="223.524582" style="fill: #ff7f0e; stroke: #ff7f0e"/>
     <use xlink:href="#m7472e0df00" x="167.12616" y="235.510202" style="fill: #ff7f0e; stroke: #ff7f0e"/>
     <use xlink:href="#m7472e0df00" x="177.478664" y="246.022086" style="fill: #ff7f0e; stroke: #ff7f0e"/>
     <use xlink:href="#m7472e0df00" x="187.831169" y="252.959753" style="fill: #ff7f0e; stroke: #ff7f0e"/>
     <use xlink:href="#m7472e0df00" x="198.183673" y="265.227437" style="fill: #ff7f0e; stroke: #ff7f0e"/>
     <use xlink:href="#m7472e0df00" x="208.536178" y="264.434848" style="fill: #ff7f0e; stroke: #ff7f0e"/>
     <use xlink:href="#m7472e0df00" x="218.888683" y="274.599276" style="fill: #ff7f0e; stroke: #ff7f0e"/>
     <use xlink:href="#m7472e0df00" x="229.241187" y="267.93288" style="fill: #ff7f0e; stroke: #ff7f0e"/>
     <use xlink:href="#m7472e0df00" x="239.593692" y="284.496893" style="fill: #ff7f0e; stroke: #ff7f0e"/>
     <use xlink:href="#m7472e0df00" x="249.946197" y="281.637333" style="fill: #ff7f0e; stroke: #ff7f0e"/>
     <use xlink:href="#m7472e0df00" x="260.298701" y="286.011159" style="fill: #ff7f0e; stroke: #ff7f0e"/>
     <use xlink:href="#m7472e0df00" x="270.651206" y="292.020763" style="fill: #ff7f0e; stroke: #ff7f0e"/>
     <use xlink:href="#m7472e0df00" x="281.003711" y="283.192375" style="fill: #ff7f0e; stroke: #ff7f0e"/>
     <use xlink:href="#m7472e0df00" x="291.356215" y="290.345485" style="fill: #ff7f0e; stroke: #ff7f0e"/>
     <use xlink:href="#m7472e0df00" x="301.70872" y="292.887188" style="fill: #ff7f0e; stroke: #ff7f0e"/>
     <use xlink:href="#m7472e0df00" x="312.061224" y="296.369464" style="fill: #ff7f0e; stroke: #ff7f0e"/>
     <use xlink:href="#m7472e0df00" x="322.413729" y="297.14816" style="fill: #ff7f0e; stroke: #ff7f0e"/>
     <use xlink:href="#m7472e0df00" x="332.766234" y="292.456876" style="fill: #ff7f0e; stroke: #ff7f0e"/>
     <use xlink:href="#m7472e0df00" x="343.118738" y="282.460216" style="fill: #ff7f0e; stroke: #ff7f0e"/>
     <use xlink:href="#m7472e0df00" x="353.471243" y="286.734835" style="fill: #ff7f0e; stroke: #ff7f0e"/>
     <use xlink:href="#m7472e0df00" x="363.823748" y="297.661374" style="fill: #ff7f0e; stroke: #ff7f0e"/>
     <use xlink:href="#m7472e0df00" x="374.176252" y="301.523294" style="fill: #ff7f0e; stroke: #ff7f0e"/>
     <use xlink:href="#m7472e0df00" x="384.528757" y="294.477112" style="fill: #ff7f0e; stroke: #ff7f0e"/>
     <use xlink:href="#m7472e0df00" x="394.881262" y="299.595526" style="fill: #ff7f0e; stroke: #ff7f0e"/>
     <use xlink:href="#m7472e0df00" x="405.233766" y="300.956986" style="fill: #ff7f0e; stroke: #ff7f0e"/>
     <use xlink:href="#m7472e0df00" x="415.586271" y="298.464351" style="fill: #ff7f0e; stroke: #ff7f0e"/>
     <use xlink:href="#m7472e0df00" x="425.938776" y="301.892134" style="fill: #ff7f0e; stroke: #ff7f0e"/>
     <use xlink:href="#m7472e0df00" x="436.29128" y="302.338854" style="fill: #ff7f0e; stroke: #ff7f0e"/>
     <use xlink:href="#m7472e0df00" x="446.643785" y="297.602575" style="fill: #ff7f0e; stroke: #ff7f0e"/>
     <use xlink:href="#m7472e0df00" x="456.996289" y="302.829823" style="fill: #ff7f0e; stroke: #ff7f0e"/>
     <use xlink:href="#m7472e0df00" x="467.348794" y="288.893835" style="fill: #ff7f0e; stroke: #ff7f0e"/>
     <use xlink:href="#m7472e0df00" x="477.701299" y="307.8" style="fill: #ff7f0e; stroke: #ff7f0e"/>
     <use xlink:href="#m7472e0df00" x="488.053803" y="301.631493" style="fill: #ff7f0e; stroke: #ff7f0e"/>
     <use xlink:href="#m7472e0df00" x="498.406308" y="307.673638" style="fill: #ff7f0e; stroke: #ff7f0e"/>
     <use xlink:href="#m7472e0df00" x="508.758813" y="307.40539" style="fill: #ff7f0e; stroke: #ff7f0e"/>
     <use xlink:href="#m7472e0df00" x="519.111317" y="301.883306" style="fill: #ff7f0e; stroke: #ff7f0e"/>
     <use xlink:href="#m7472e0df00" x="529.463822" y="300.232894" style="fill: #ff7f0e; stroke: #ff7f0e"/>
     <use xlink:href="#m7472e0df00" x="539.816327" y="304.493154" style="fill: #ff7f0e; stroke: #ff7f0e"/>
     <use xlink:href="#m7472e0df00" x="550.168831" y="302.834749" style="fill: #ff7f0e; stroke: #ff7f0e"/>
     <use xlink:href="#m7472e0df00" x="560.521336" y="307.325536" style="fill: #ff7f0e; stroke: #ff7f0e"/>
     <use xlink:href="#m7472e0df00" x="570.87384" y="303.93386" style="fill: #ff7f0e; stroke: #ff7f0e"/>
     <use xlink:href="#m7472e0df00" x="581.226345" y="304.826619" style="fill: #ff7f0e; stroke: #ff7f0e"/>
     <use xlink:href="#m7472e0df00" x="591.57885" y="304.86827" style="fill: #ff7f0e; stroke: #ff7f0e"/>
     <use xlink:href="#m7472e0df00" x="601.931354" y="302.964384" style="fill: #ff7f0e; stroke: #ff7f0e"/>
     <use xlink:href="#m7472e0df00" x="612.283859" y="304.064909" style="fill: #ff7f0e; stroke: #ff7f0e"/>
     <use xlink:href="#m7472e0df00" x="622.636364" y="306.233157" style="fill: #ff7f0e; stroke: #ff7f0e"/>
    </g>
   </g>
   <g id="patch_3">
    <path d="M 90 320.4 
L 90 43.2 
" style="fill: none; stroke: #000000; stroke-width: 0.8; stroke-linejoin: miter; stroke-linecap: square"/>
   </g>
   <g id="patch_4">
    <path d="M 648 320.4 
L 648 43.2 
" style="fill: none; stroke: #000000; stroke-width: 0.8; stroke-linejoin: miter; stroke-linecap: square"/>
   </g>
   <g id="patch_5">
    <path d="M 90 320.4 
L 648 320.4 
" style="fill: none; stroke: #000000; stroke-width: 0.8; stroke-linejoin: miter; stroke-linecap: square"/>
   </g>
   <g id="patch_6">
    <path d="M 90 43.2 
L 648 43.2 
" style="fill: none; stroke: #000000; stroke-width: 0.8; stroke-linejoin: miter; stroke-linecap: square"/>
   </g>
   <g id="text_18">
    <!-- Learning Curve -->
    <g transform="translate(323.341875 37.2) scale(0.12 -0.12)">
     <defs>
      <path id="DejaVuSans-65" d="M 3597 1894 
L 3597 1613 
L 953 1613 
Q 991 1019 1311 708 
Q 1631 397 2203 397 
Q 2534 397 2845 478 
Q 3156 559 3463 722 
L 3463 178 
Q 3153 47 2828 -22 
Q 2503 -91 2169 -91 
Q 1331 -91 842 396 
Q 353 884 353 1716 
Q 353 2575 817 3079 
Q 1281 3584 2069 3584 
Q 2775 3584 3186 3129 
Q 3597 2675 3597 1894 
z
M 3022 2063 
Q 3016 2534 2758 2815 
Q 2500 3097 2075 3097 
Q 1594 3097 1305 2825 
Q 1016 2553 972 2059 
L 3022 2063 
z
" transform="scale(0.015625)"/>
      <path id="DejaVuSans-61" d="M 2194 1759 
Q 1497 1759 1228 1600 
Q 959 1441 959 1056 
Q 959 750 1161 570 
Q 1363 391 1709 391 
Q 2188 391 2477 730 
Q 2766 1069 2766 1631 
L 2766 1759 
L 2194 1759 
z
M 3341 1997 
L 3341 0 
L 2766 0 
L 2766 531 
Q 2569 213 2275 61 
Q 1981 -91 1556 -91 
Q 1019 -91 701 211 
Q 384 513 384 1019 
Q 384 1609 779 1909 
Q 1175 2209 1959 2209 
L 2766 2209 
L 2766 2266 
Q 2766 2663 2505 2880 
Q 2244 3097 1772 3097 
Q 1472 3097 1187 3025 
Q 903 2953 641 2809 
L 641 3341 
Q 956 3463 1253 3523 
Q 1550 3584 1831 3584 
Q 2591 3584 2966 3190 
Q 3341 2797 3341 1997 
z
" transform="scale(0.015625)"/>
      <path id="DejaVuSans-72" d="M 2631 2963 
Q 2534 3019 2420 3045 
Q 2306 3072 2169 3072 
Q 1681 3072 1420 2755 
Q 1159 2438 1159 1844 
L 1159 0 
L 581 0 
L 581 3500 
L 1159 3500 
L 1159 2956 
Q 1341 3275 1631 3429 
Q 1922 3584 2338 3584 
Q 2397 3584 2469 3576 
Q 2541 3569 2628 3553 
L 2631 2963 
z
" transform="scale(0.015625)"/>
      <path id="DejaVuSans-6e" d="M 3513 2113 
L 3513 0 
L 2938 0 
L 2938 2094 
Q 2938 2591 2744 2837 
Q 2550 3084 2163 3084 
Q 1697 3084 1428 2787 
Q 1159 2491 1159 1978 
L 1159 0 
L 581 0 
L 581 3500 
L 1159 3500 
L 1159 2956 
Q 1366 3272 1645 3428 
Q 1925 3584 2291 3584 
Q 2894 3584 3203 3211 
Q 3513 2838 3513 2113 
z
" transform="scale(0.015625)"/>
      <path id="DejaVuSans-69" d="M 603 3500 
L 1178 3500 
L 1178 0 
L 603 0 
L 603 3500 
z
M 603 4863 
L 1178 4863 
L 1178 4134 
L 603 4134 
L 603 4863 
z
" transform="scale(0.015625)"/>
      <path id="DejaVuSans-67" d="M 2906 1791 
Q 2906 2416 2648 2759 
Q 2391 3103 1925 3103 
Q 1463 3103 1205 2759 
Q 947 2416 947 1791 
Q 947 1169 1205 825 
Q 1463 481 1925 481 
Q 2391 481 2648 825 
Q 2906 1169 2906 1791 
z
M 3481 434 
Q 3481 -459 3084 -895 
Q 2688 -1331 1869 -1331 
Q 1566 -1331 1297 -1286 
Q 1028 -1241 775 -1147 
L 775 -588 
Q 1028 -725 1275 -790 
Q 1522 -856 1778 -856 
Q 2344 -856 2625 -561 
Q 2906 -266 2906 331 
L 2906 616 
Q 2728 306 2450 153 
Q 2172 0 1784 0 
Q 1141 0 747 490 
Q 353 981 353 1791 
Q 353 2603 747 3093 
Q 1141 3584 1784 3584 
Q 2172 3584 2450 3431 
Q 2728 3278 2906 2969 
L 2906 3500 
L 3481 3500 
L 3481 434 
z
" transform="scale(0.015625)"/>
      <path id="DejaVuSans-20" transform="scale(0.015625)"/>
      <path id="DejaVuSans-43" d="M 4122 4306 
L 4122 3641 
Q 3803 3938 3442 4084 
Q 3081 4231 2675 4231 
Q 1875 4231 1450 3742 
Q 1025 3253 1025 2328 
Q 1025 1406 1450 917 
Q 1875 428 2675 428 
Q 3081 428 3442 575 
Q 3803 722 4122 1019 
L 4122 359 
Q 3791 134 3420 21 
Q 3050 -91 2638 -91 
Q 1578 -91 968 557 
Q 359 1206 359 2328 
Q 359 3453 968 4101 
Q 1578 4750 2638 4750 
Q 3056 4750 3426 4639 
Q 3797 4528 4122 4306 
z
" transform="scale(0.015625)"/>
      <path id="DejaVuSans-75" d="M 544 1381 
L 544 3500 
L 1119 3500 
L 1119 1403 
Q 1119 906 1312 657 
Q 1506 409 1894 409 
Q 2359 409 2629 706 
Q 2900 1003 2900 1516 
L 2900 3500 
L 3475 3500 
L 3475 0 
L 2900 0 
L 2900 538 
Q 2691 219 2414 64 
Q 2138 -91 1772 -91 
Q 1169 -91 856 284 
Q 544 659 544 1381 
z
M 1991 3584 
L 1991 3584 
z
" transform="scale(0.015625)"/>
      <path id="DejaVuSans-76" d="M 191 3500 
L 800 3500 
L 1894 563 
L 2988 3500 
L 3597 3500 
L 2284 0 
L 1503 0 
L 191 3500 
z
" transform="scale(0.015625)"/>
     </defs>
     <use xlink:href="#DejaVuSans-4c"/>
     <use xlink:href="#DejaVuSans-65" x="53.962891"/>
     <use xlink:href="#DejaVuSans-61" x="115.486328"/>
     <use xlink:href="#DejaVuSans-72" x="176.765625"/>
     <use xlink:href="#DejaVuSans-6e" x="216.128906"/>
     <use xlink:href="#DejaVuSans-69" x="279.507812"/>
     <use xlink:href="#DejaVuSans-6e" x="307.291016"/>
     <use xlink:href="#DejaVuSans-67" x="370.669922"/>
     <use xlink:href="#DejaVuSans-20" x="434.146484"/>
     <use xlink:href="#DejaVuSans-43" x="465.933594"/>
     <use xlink:href="#DejaVuSans-75" x="535.757812"/>
     <use xlink:href="#DejaVuSans-72" x="599.136719"/>
     <use xlink:href="#DejaVuSans-76" x="640.25"/>
     <use xlink:href="#DejaVuSans-65" x="699.429688"/>
    </g>
   </g>
   <g id="legend_1">
    <g id="patch_7">
     <path d="M 602.159375 80.55625 
L 641 80.55625 
Q 643 80.55625 643 78.55625 
L 643 50.2 
Q 643 48.2 641 48.2 
L 602.159375 48.2 
Q 600.159375 48.2 600.159375 50.2 
L 600.159375 78.55625 
Q 600.159375 80.55625 602.159375 80.55625 
z
" style="fill: #ffffff; opacity: 0.8; stroke: #cccccc; stroke-linejoin: miter"/>
    </g>
    <g id="line2d_18">
     <path d="M 604.159375 56.298437 
L 614.159375 56.298437 
L 624.159375 56.298437 
" style="fill: none; stroke: #1f77b4; stroke-width: 1.5; stroke-linecap: square"/>
     <g>
      <use xlink:href="#mf16308dc6a" x="614.159375" y="56.298437" style="fill: #1f77b4; stroke: #1f77b4"/>
     </g>
    </g>
    <g id="text_19">
     <!-- T -->
     <g transform="translate(632.159375 59.798437) scale(0.1 -0.1)">
      <defs>
       <path id="DejaVuSans-54" d="M -19 4666 
L 3928 4666 
L 3928 4134 
L 2272 4134 
L 2272 0 
L 1638 0 
L 1638 4134 
L -19 4134 
L -19 4666 
z
" transform="scale(0.015625)"/>
      </defs>
      <use xlink:href="#DejaVuSans-54"/>
     </g>
    </g>
    <g id="line2d_19">
     <path d="M 604.159375 70.976562 
L 614.159375 70.976562 
L 624.159375 70.976562 
" style="fill: none; stroke: #ff7f0e; stroke-width: 1.5; stroke-linecap: square"/>
     <g>
      <use xlink:href="#m7472e0df00" x="614.159375" y="70.976562" style="fill: #ff7f0e; stroke: #ff7f0e"/>
     </g>
    </g>
    <g id="text_20">
     <!-- V -->
     <g transform="translate(632.159375 74.476562) scale(0.1 -0.1)">
      <defs>
       <path id="DejaVuSans-56" d="M 1831 0 
L 50 4666 
L 709 4666 
L 2188 738 
L 3669 4666 
L 4325 4666 
L 2547 0 
L 1831 0 
z
" transform="scale(0.015625)"/>
      </defs>
      <use xlink:href="#DejaVuSans-56"/>
     </g>
    </g>
   </g>
  </g>
 </g>
 <defs>
  <clipPath id="p8a931e1034">
   <rect x="90" y="43.2" width="558" height="277.2"/>
  </clipPath>
 </defs>
</svg>
