<?xml version="1.0" encoding="utf-8" standalone="no"?>
<!DOCTYPE svg PUBLIC "-//W3C//DTD SVG 1.1//EN"
  "http://www.w3.org/Graphics/SVG/1.1/DTD/svg11.dtd">
<svg xmlns:xlink="http://www.w3.org/1999/xlink" width="720pt" height="360pt" viewBox="0 0 720 360" xmlns="http://www.w3.org/2000/svg" version="1.1">
 <metadata>
  <rdf:RDF xmlns:dc="http://purl.org/dc/elements/1.1/" xmlns:cc="http://creativecommons.org/ns#" xmlns:rdf="http://www.w3.org/1999/02/22-rdf-syntax-ns#">
   <cc:Work>
    <dc:type rdf:resource="http://purl.org/dc/dcmitype/StillImage"/>
    <dc:date>2023-11-14T23:55:10.400255</dc:date>
    <dc:format>image/svg+xml</dc:format>
    <dc:creator>
     <cc:Agent>
      <dc:title>Matplotlib v3.7.2, https://matplotlib.org/</dc:title>
     </cc:Agent>
    </dc:creator>
   </cc:Work>
  </rdf:RDF>
 </metadata>
 <defs>
  <style type="text/css">*{stroke-linejoin: round; stroke-linecap: butt}</style>
 </defs>
 <g id="figure_1">
  <g id="patch_1">
   <path d="M 0 360 
L 720 360 
L 720 0 
L 0 0 
z
" style="fill: #ffffff"/>
  </g>
  <g id="axes_1">
   <g id="patch_2">
    <path d="M 90 320.4 
L 648 320.4 
L 648 43.2 
L 90 43.2 
z
" style="fill: #ffffff"/>
   </g>
   <g id="matplotlib.axis_1">
    <g id="xtick_1">
     <g id="line2d_1">
      <defs>
       <path id="mdadc0e4331" d="M 0 0 
L 0 3.5 
" style="stroke: #000000; stroke-width: 0.8"/>
      </defs>
      <g>
       <use xlink:href="#mdadc0e4331" x="110.239669" y="320.4" style="stroke: #000000; stroke-width: 0.8"/>
      </g>
     </g>
     <g id="text_1">
      <!-- 0 -->
      <g transform="translate(107.058419 334.998438) scale(0.1 -0.1)">
       <defs>
        <path id="DejaVuSans-30" d="M 2034 4250 
Q 1547 4250 1301 3770 
Q 1056 3291 1056 2328 
Q 1056 1369 1301 889 
Q 1547 409 2034 409 
Q 2525 409 2770 889 
Q 3016 1369 3016 2328 
Q 3016 3291 2770 3770 
Q 2525 4250 2034 4250 
z
M 2034 4750 
Q 2819 4750 3233 4129 
Q 3647 3509 3647 2328 
Q 3647 1150 3233 529 
Q 2819 -91 2034 -91 
Q 1250 -91 836 529 
Q 422 1150 422 2328 
Q 422 3509 836 4129 
Q 1250 4750 2034 4750 
z
" transform="scale(0.015625)"/>
       </defs>
       <use xlink:href="#DejaVuSans-30"/>
      </g>
     </g>
    </g>
    <g id="xtick_2">
     <g id="line2d_2">
      <g>
       <use xlink:href="#mdadc0e4331" x="135.859504" y="320.4" style="stroke: #000000; stroke-width: 0.8"/>
      </g>
     </g>
     <g id="text_2">
      <!-- 5 -->
      <g transform="translate(132.678254 334.998438) scale(0.1 -0.1)">
       <defs>
        <path id="DejaVuSans-35" d="M 691 4666 
L 3169 4666 
L 3169 4134 
L 1269 4134 
L 1269 2991 
Q 1406 3038 1543 3061 
Q 1681 3084 1819 3084 
Q 2600 3084 3056 2656 
Q 3513 2228 3513 1497 
Q 3513 744 3044 326 
Q 2575 -91 1722 -91 
Q 1428 -91 1123 -41 
Q 819 9 494 109 
L 494 744 
Q 775 591 1075 516 
Q 1375 441 1709 441 
Q 2250 441 2565 725 
Q 2881 1009 2881 1497 
Q 2881 1984 2565 2268 
Q 2250 2553 1709 2553 
Q 1456 2553 1204 2497 
Q 953 2441 691 2322 
L 691 4666 
z
" transform="scale(0.015625)"/>
       </defs>
       <use xlink:href="#DejaVuSans-35"/>
      </g>
     </g>
    </g>
    <g id="xtick_3">
     <g id="line2d_3">
      <g>
       <use xlink:href="#mdadc0e4331" x="161.479339" y="320.4" style="stroke: #000000; stroke-width: 0.8"/>
      </g>
     </g>
     <g id="text_3">
      <!-- 10 -->
      <g transform="translate(155.116839 334.998438) scale(0.1 -0.1)">
       <defs>
        <path id="DejaVuSans-31" d="M 794 531 
L 1825 531 
L 1825 4091 
L 703 3866 
L 703 4441 
L 1819 4666 
L 2450 4666 
L 2450 531 
L 3481 531 
L 3481 0 
L 794 0 
L 794 531 
z
" transform="scale(0.015625)"/>
       </defs>
       <use xlink:href="#DejaVuSans-31"/>
       <use xlink:href="#DejaVuSans-30" x="63.623047"/>
      </g>
     </g>
    </g>
    <g id="xtick_4">
     <g id="line2d_4">
      <g>
       <use xlink:href="#mdadc0e4331" x="187.099174" y="320.4" style="stroke: #000000; stroke-width: 0.8"/>
      </g>
     </g>
     <g id="text_4">
      <!-- 15 -->
      <g transform="translate(180.736674 334.998438) scale(0.1 -0.1)">
       <use xlink:href="#DejaVuSans-31"/>
       <use xlink:href="#DejaVuSans-35" x="63.623047"/>
      </g>
     </g>
    </g>
    <g id="xtick_5">
     <g id="line2d_5">
      <g>
       <use xlink:href="#mdadc0e4331" x="212.719008" y="320.4" style="stroke: #000000; stroke-width: 0.8"/>
      </g>
     </g>
     <g id="text_5">
      <!-- 20 -->
      <g transform="translate(206.356508 334.998438) scale(0.1 -0.1)">
       <defs>
        <path id="DejaVuSans-32" d="M 1228 531 
L 3431 531 
L 3431 0 
L 469 0 
L 469 531 
Q 828 903 1448 1529 
Q 2069 2156 2228 2338 
Q 2531 2678 2651 2914 
Q 2772 3150 2772 3378 
Q 2772 3750 2511 3984 
Q 2250 4219 1831 4219 
Q 1534 4219 1204 4116 
Q 875 4013 500 3803 
L 500 4441 
Q 881 4594 1212 4672 
Q 1544 4750 1819 4750 
Q 2544 4750 2975 4387 
Q 3406 4025 3406 3419 
Q 3406 3131 3298 2873 
Q 3191 2616 2906 2266 
Q 2828 2175 2409 1742 
Q 1991 1309 1228 531 
z
" transform="scale(0.015625)"/>
       </defs>
       <use xlink:href="#DejaVuSans-32"/>
       <use xlink:href="#DejaVuSans-30" x="63.623047"/>
      </g>
     </g>
    </g>
    <g id="xtick_6">
     <g id="line2d_6">
      <g>
       <use xlink:href="#mdadc0e4331" x="238.338843" y="320.4" style="stroke: #000000; stroke-width: 0.8"/>
      </g>
     </g>
     <g id="text_6">
      <!-- 25 -->
      <g transform="translate(231.976343 334.998438) scale(0.1 -0.1)">
       <use xlink:href="#DejaVuSans-32"/>
       <use xlink:href="#DejaVuSans-35" x="63.623047"/>
      </g>
     </g>
    </g>
    <g id="xtick_7">
     <g id="line2d_7">
      <g>
       <use xlink:href="#mdadc0e4331" x="263.958678" y="320.4" style="stroke: #000000; stroke-width: 0.8"/>
      </g>
     </g>
     <g id="text_7">
      <!-- 30 -->
      <g transform="translate(257.596178 334.998438) scale(0.1 -0.1)">
       <defs>
        <path id="DejaVuSans-33" d="M 2597 2516 
Q 3050 2419 3304 2112 
Q 3559 1806 3559 1356 
Q 3559 666 3084 287 
Q 2609 -91 1734 -91 
Q 1441 -91 1130 -33 
Q 819 25 488 141 
L 488 750 
Q 750 597 1062 519 
Q 1375 441 1716 441 
Q 2309 441 2620 675 
Q 2931 909 2931 1356 
Q 2931 1769 2642 2001 
Q 2353 2234 1838 2234 
L 1294 2234 
L 1294 2753 
L 1863 2753 
Q 2328 2753 2575 2939 
Q 2822 3125 2822 3475 
Q 2822 3834 2567 4026 
Q 2313 4219 1838 4219 
Q 1578 4219 1281 4162 
Q 984 4106 628 3988 
L 628 4550 
Q 988 4650 1302 4700 
Q 1616 4750 1894 4750 
Q 2613 4750 3031 4423 
Q 3450 4097 3450 3541 
Q 3450 3153 3228 2886 
Q 3006 2619 2597 2516 
z
" transform="scale(0.015625)"/>
       </defs>
       <use xlink:href="#DejaVuSans-33"/>
       <use xlink:href="#DejaVuSans-30" x="63.623047"/>
      </g>
     </g>
    </g>
    <g id="xtick_8">
     <g id="line2d_8">
      <g>
       <use xlink:href="#mdadc0e4331" x="289.578512" y="320.4" style="stroke: #000000; stroke-width: 0.8"/>
      </g>
     </g>
     <g id="text_8">
      <!-- 35 -->
      <g transform="translate(283.216012 334.998438) scale(0.1 -0.1)">
       <use xlink:href="#DejaVuSans-33"/>
       <use xlink:href="#DejaVuSans-35" x="63.623047"/>
      </g>
     </g>
    </g>
    <g id="xtick_9">
     <g id="line2d_9">
      <g>
       <use xlink:href="#mdadc0e4331" x="315.198347" y="320.4" style="stroke: #000000; stroke-width: 0.8"/>
      </g>
     </g>
     <g id="text_9">
      <!-- 40 -->
      <g transform="translate(308.835847 334.998438) scale(0.1 -0.1)">
       <defs>
        <path id="DejaVuSans-34" d="M 2419 4116 
L 825 1625 
L 2419 1625 
L 2419 4116 
z
M 2253 4666 
L 3047 4666 
L 3047 1625 
L 3713 1625 
L 3713 1100 
L 3047 1100 
L 3047 0 
L 2419 0 
L 2419 1100 
L 313 1100 
L 313 1709 
L 2253 4666 
z
" transform="scale(0.015625)"/>
       </defs>
       <use xlink:href="#DejaVuSans-34"/>
       <use xlink:href="#DejaVuSans-30" x="63.623047"/>
      </g>
     </g>
    </g>
    <g id="xtick_10">
     <g id="line2d_10">
      <g>
       <use xlink:href="#mdadc0e4331" x="340.818182" y="320.4" style="stroke: #000000; stroke-width: 0.8"/>
      </g>
     </g>
     <g id="text_10">
      <!-- 45 -->
      <g transform="translate(334.455682 334.998438) scale(0.1 -0.1)">
       <use xlink:href="#DejaVuSans-34"/>
       <use xlink:href="#DejaVuSans-35" x="63.623047"/>
      </g>
     </g>
    </g>
    <g id="xtick_11">
     <g id="line2d_11">
      <g>
       <use xlink:href="#mdadc0e4331" x="366.438017" y="320.4" style="stroke: #000000; stroke-width: 0.8"/>
      </g>
     </g>
     <g id="text_11">
      <!-- 50 -->
      <g transform="translate(360.075517 334.998438) scale(0.1 -0.1)">
       <use xlink:href="#DejaVuSans-35"/>
       <use xlink:href="#DejaVuSans-30" x="63.623047"/>
      </g>
     </g>
    </g>
    <g id="xtick_12">
     <g id="line2d_12">
      <g>
       <use xlink:href="#mdadc0e4331" x="392.057851" y="320.4" style="stroke: #000000; stroke-width: 0.8"/>
      </g>
     </g>
     <g id="text_12">
      <!-- 55 -->
      <g transform="translate(385.695351 334.998438) scale(0.1 -0.1)">
       <use xlink:href="#DejaVuSans-35"/>
       <use xlink:href="#DejaVuSans-35" x="63.623047"/>
      </g>
     </g>
    </g>
    <g id="xtick_13">
     <g id="line2d_13">
      <g>
       <use xlink:href="#mdadc0e4331" x="417.677686" y="320.4" style="stroke: #000000; stroke-width: 0.8"/>
      </g>
     </g>
     <g id="text_13">
      <!-- 60 -->
      <g transform="translate(411.315186 334.998438) scale(0.1 -0.1)">
       <defs>
        <path id="DejaVuSans-36" d="M 2113 2584 
Q 1688 2584 1439 2293 
Q 1191 2003 1191 1497 
Q 1191 994 1439 701 
Q 1688 409 2113 409 
Q 2538 409 2786 701 
Q 3034 994 3034 1497 
Q 3034 2003 2786 2293 
Q 2538 2584 2113 2584 
z
M 3366 4563 
L 3366 3988 
Q 3128 4100 2886 4159 
Q 2644 4219 2406 4219 
Q 1781 4219 1451 3797 
Q 1122 3375 1075 2522 
Q 1259 2794 1537 2939 
Q 1816 3084 2150 3084 
Q 2853 3084 3261 2657 
Q 3669 2231 3669 1497 
Q 3669 778 3244 343 
Q 2819 -91 2113 -91 
Q 1303 -91 875 529 
Q 447 1150 447 2328 
Q 447 3434 972 4092 
Q 1497 4750 2381 4750 
Q 2619 4750 2861 4703 
Q 3103 4656 3366 4563 
z
" transform="scale(0.015625)"/>
       </defs>
       <use xlink:href="#DejaVuSans-36"/>
       <use xlink:href="#DejaVuSans-30" x="63.623047"/>
      </g>
     </g>
    </g>
    <g id="xtick_14">
     <g id="line2d_14">
      <g>
       <use xlink:href="#mdadc0e4331" x="443.297521" y="320.4" style="stroke: #000000; stroke-width: 0.8"/>
      </g>
     </g>
     <g id="text_14">
      <!-- 65 -->
      <g transform="translate(436.935021 334.998438) scale(0.1 -0.1)">
       <use xlink:href="#DejaVuSans-36"/>
       <use xlink:href="#DejaVuSans-35" x="63.623047"/>
      </g>
     </g>
    </g>
    <g id="xtick_15">
     <g id="line2d_15">
      <g>
       <use xlink:href="#mdadc0e4331" x="468.917355" y="320.4" style="stroke: #000000; stroke-width: 0.8"/>
      </g>
     </g>
     <g id="text_15">
      <!-- 70 -->
      <g transform="translate(462.554855 334.998438) scale(0.1 -0.1)">
       <defs>
        <path id="DejaVuSans-37" d="M 525 4666 
L 3525 4666 
L 3525 4397 
L 1831 0 
L 1172 0 
L 2766 4134 
L 525 4134 
L 525 4666 
z
" transform="scale(0.015625)"/>
       </defs>
       <use xlink:href="#DejaVuSans-37"/>
       <use xlink:href="#DejaVuSans-30" x="63.623047"/>
      </g>
     </g>
    </g>
    <g id="xtick_16">
     <g id="line2d_16">
      <g>
       <use xlink:href="#mdadc0e4331" x="494.53719" y="320.4" style="stroke: #000000; stroke-width: 0.8"/>
      </g>
     </g>
     <g id="text_16">
      <!-- 75 -->
      <g transform="translate(488.17469 334.998438) scale(0.1 -0.1)">
       <use xlink:href="#DejaVuSans-37"/>
       <use xlink:href="#DejaVuSans-35" x="63.623047"/>
      </g>
     </g>
    </g>
    <g id="xtick_17">
     <g id="line2d_17">
      <g>
       <use xlink:href="#mdadc0e4331" x="520.157025" y="320.4" style="stroke: #000000; stroke-width: 0.8"/>
      </g>
     </g>
     <g id="text_17">
      <!-- 80 -->
      <g transform="translate(513.794525 334.998438) scale(0.1 -0.1)">
       <defs>
        <path id="DejaVuSans-38" d="M 2034 2216 
Q 1584 2216 1326 1975 
Q 1069 1734 1069 1313 
Q 1069 891 1326 650 
Q 1584 409 2034 409 
Q 2484 409 2743 651 
Q 3003 894 3003 1313 
Q 3003 1734 2745 1975 
Q 2488 2216 2034 2216 
z
M 1403 2484 
Q 997 2584 770 2862 
Q 544 3141 544 3541 
Q 544 4100 942 4425 
Q 1341 4750 2034 4750 
Q 2731 4750 3128 4425 
Q 3525 4100 3525 3541 
Q 3525 3141 3298 2862 
Q 3072 2584 2669 2484 
Q 3125 2378 3379 2068 
Q 3634 1759 3634 1313 
Q 3634 634 3220 271 
Q 2806 -91 2034 -91 
Q 1263 -91 848 271 
Q 434 634 434 1313 
Q 434 1759 690 2068 
Q 947 2378 1403 2484 
z
M 1172 3481 
Q 1172 3119 1398 2916 
Q 1625 2713 2034 2713 
Q 2441 2713 2670 2916 
Q 2900 3119 2900 3481 
Q 2900 3844 2670 4047 
Q 2441 4250 2034 4250 
Q 1625 4250 1398 4047 
Q 1172 3844 1172 3481 
z
" transform="scale(0.015625)"/>
       </defs>
       <use xlink:href="#DejaVuSans-38"/>
       <use xlink:href="#DejaVuSans-30" x="63.623047"/>
      </g>
     </g>
    </g>
    <g id="xtick_18">
     <g id="line2d_18">
      <g>
       <use xlink:href="#mdadc0e4331" x="545.77686" y="320.4" style="stroke: #000000; stroke-width: 0.8"/>
      </g>
     </g>
     <g id="text_18">
      <!-- 85 -->
      <g transform="translate(539.41436 334.998438) scale(0.1 -0.1)">
       <use xlink:href="#DejaVuSans-38"/>
       <use xlink:href="#DejaVuSans-35" x="63.623047"/>
      </g>
     </g>
    </g>
    <g id="xtick_19">
     <g id="line2d_19">
      <g>
       <use xlink:href="#mdadc0e4331" x="571.396694" y="320.4" style="stroke: #000000; stroke-width: 0.8"/>
      </g>
     </g>
     <g id="text_19">
      <!-- 90 -->
      <g transform="translate(565.034194 334.998438) scale(0.1 -0.1)">
       <defs>
        <path id="DejaVuSans-39" d="M 703 97 
L 703 672 
Q 941 559 1184 500 
Q 1428 441 1663 441 
Q 2288 441 2617 861 
Q 2947 1281 2994 2138 
Q 2813 1869 2534 1725 
Q 2256 1581 1919 1581 
Q 1219 1581 811 2004 
Q 403 2428 403 3163 
Q 403 3881 828 4315 
Q 1253 4750 1959 4750 
Q 2769 4750 3195 4129 
Q 3622 3509 3622 2328 
Q 3622 1225 3098 567 
Q 2575 -91 1691 -91 
Q 1453 -91 1209 -44 
Q 966 3 703 97 
z
M 1959 2075 
Q 2384 2075 2632 2365 
Q 2881 2656 2881 3163 
Q 2881 3666 2632 3958 
Q 2384 4250 1959 4250 
Q 1534 4250 1286 3958 
Q 1038 3666 1038 3163 
Q 1038 2656 1286 2365 
Q 1534 2075 1959 2075 
z
" transform="scale(0.015625)"/>
       </defs>
       <use xlink:href="#DejaVuSans-39"/>
       <use xlink:href="#DejaVuSans-30" x="63.623047"/>
      </g>
     </g>
    </g>
    <g id="xtick_20">
     <g id="line2d_20">
      <g>
       <use xlink:href="#mdadc0e4331" x="597.016529" y="320.4" style="stroke: #000000; stroke-width: 0.8"/>
      </g>
     </g>
     <g id="text_20">
      <!-- 95 -->
      <g transform="translate(590.654029 334.998438) scale(0.1 -0.1)">
       <use xlink:href="#DejaVuSans-39"/>
       <use xlink:href="#DejaVuSans-35" x="63.623047"/>
      </g>
     </g>
    </g>
    <g id="text_21">
     <!-- Epochs -->
     <g transform="translate(351.084375 348.676562) scale(0.1 -0.1)">
      <defs>
       <path id="DejaVuSans-45" d="M 628 4666 
L 3578 4666 
L 3578 4134 
L 1259 4134 
L 1259 2753 
L 3481 2753 
L 3481 2222 
L 1259 2222 
L 1259 531 
L 3634 531 
L 3634 0 
L 628 0 
L 628 4666 
z
" transform="scale(0.015625)"/>
       <path id="DejaVuSans-70" d="M 1159 525 
L 1159 -1331 
L 581 -1331 
L 581 3500 
L 1159 3500 
L 1159 2969 
Q 1341 3281 1617 3432 
Q 1894 3584 2278 3584 
Q 2916 3584 3314 3078 
Q 3713 2572 3713 1747 
Q 3713 922 3314 415 
Q 2916 -91 2278 -91 
Q 1894 -91 1617 61 
Q 1341 213 1159 525 
z
M 3116 1747 
Q 3116 2381 2855 2742 
Q 2594 3103 2138 3103 
Q 1681 3103 1420 2742 
Q 1159 2381 1159 1747 
Q 1159 1113 1420 752 
Q 1681 391 2138 391 
Q 2594 391 2855 752 
Q 3116 1113 3116 1747 
z
" transform="scale(0.015625)"/>
       <path id="DejaVuSans-6f" d="M 1959 3097 
Q 1497 3097 1228 2736 
Q 959 2375 959 1747 
Q 959 1119 1226 758 
Q 1494 397 1959 397 
Q 2419 397 2687 759 
Q 2956 1122 2956 1747 
Q 2956 2369 2687 2733 
Q 2419 3097 1959 3097 
z
M 1959 3584 
Q 2709 3584 3137 3096 
Q 3566 2609 3566 1747 
Q 3566 888 3137 398 
Q 2709 -91 1959 -91 
Q 1206 -91 779 398 
Q 353 888 353 1747 
Q 353 2609 779 3096 
Q 1206 3584 1959 3584 
z
" transform="scale(0.015625)"/>
       <path id="DejaVuSans-63" d="M 3122 3366 
L 3122 2828 
Q 2878 2963 2633 3030 
Q 2388 3097 2138 3097 
Q 1578 3097 1268 2742 
Q 959 2388 959 1747 
Q 959 1106 1268 751 
Q 1578 397 2138 397 
Q 2388 397 2633 464 
Q 2878 531 3122 666 
L 3122 134 
Q 2881 22 2623 -34 
Q 2366 -91 2075 -91 
Q 1284 -91 818 406 
Q 353 903 353 1747 
Q 353 2603 823 3093 
Q 1294 3584 2113 3584 
Q 2378 3584 2631 3529 
Q 2884 3475 3122 3366 
z
" transform="scale(0.015625)"/>
       <path id="DejaVuSans-68" d="M 3513 2113 
L 3513 0 
L 2938 0 
L 2938 2094 
Q 2938 2591 2744 2837 
Q 2550 3084 2163 3084 
Q 1697 3084 1428 2787 
Q 1159 2491 1159 1978 
L 1159 0 
L 581 0 
L 581 4863 
L 1159 4863 
L 1159 2956 
Q 1366 3272 1645 3428 
Q 1925 3584 2291 3584 
Q 2894 3584 3203 3211 
Q 3513 2838 3513 2113 
z
" transform="scale(0.015625)"/>
       <path id="DejaVuSans-73" d="M 2834 3397 
L 2834 2853 
Q 2591 2978 2328 3040 
Q 2066 3103 1784 3103 
Q 1356 3103 1142 2972 
Q 928 2841 928 2578 
Q 928 2378 1081 2264 
Q 1234 2150 1697 2047 
L 1894 2003 
Q 2506 1872 2764 1633 
Q 3022 1394 3022 966 
Q 3022 478 2636 193 
Q 2250 -91 1575 -91 
Q 1294 -91 989 -36 
Q 684 19 347 128 
L 347 722 
Q 666 556 975 473 
Q 1284 391 1588 391 
Q 1994 391 2212 530 
Q 2431 669 2431 922 
Q 2431 1156 2273 1281 
Q 2116 1406 1581 1522 
L 1381 1569 
Q 847 1681 609 1914 
Q 372 2147 372 2553 
Q 372 3047 722 3315 
Q 1072 3584 1716 3584 
Q 2034 3584 2315 3537 
Q 2597 3491 2834 3397 
z
" transform="scale(0.015625)"/>
      </defs>
      <use xlink:href="#DejaVuSans-45"/>
      <use xlink:href="#DejaVuSans-70" x="63.183594"/>
      <use xlink:href="#DejaVuSans-6f" x="126.660156"/>
      <use xlink:href="#DejaVuSans-63" x="187.841797"/>
      <use xlink:href="#DejaVuSans-68" x="242.822266"/>
      <use xlink:href="#DejaVuSans-73" x="306.201172"/>
     </g>
    </g>
   </g>
   <g id="matplotlib.axis_2">
    <g id="ytick_1">
     <g id="line2d_21">
      <defs>
       <path id="m3421748363" d="M 0 0 
L -3.5 0 
" style="stroke: #000000; stroke-width: 0.8"/>
      </defs>
      <g>
       <use xlink:href="#m3421748363" x="90" y="315.425521" style="stroke: #000000; stroke-width: 0.8"/>
      </g>
     </g>
     <g id="text_22">
      <!-- 0.0 -->
      <g transform="translate(67.096875 319.22474) scale(0.1 -0.1)">
       <defs>
        <path id="DejaVuSans-2e" d="M 684 794 
L 1344 794 
L 1344 0 
L 684 0 
L 684 794 
z
" transform="scale(0.015625)"/>
       </defs>
       <use xlink:href="#DejaVuSans-30"/>
       <use xlink:href="#DejaVuSans-2e" x="63.623047"/>
       <use xlink:href="#DejaVuSans-30" x="95.410156"/>
      </g>
     </g>
    </g>
    <g id="ytick_2">
     <g id="line2d_22">
      <g>
       <use xlink:href="#m3421748363" x="90" y="272.082444" style="stroke: #000000; stroke-width: 0.8"/>
      </g>
     </g>
     <g id="text_23">
      <!-- 0.1 -->
      <g transform="translate(67.096875 275.881662) scale(0.1 -0.1)">
       <use xlink:href="#DejaVuSans-30"/>
       <use xlink:href="#DejaVuSans-2e" x="63.623047"/>
       <use xlink:href="#DejaVuSans-31" x="95.410156"/>
      </g>
     </g>
    </g>
    <g id="ytick_3">
     <g id="line2d_23">
      <g>
       <use xlink:href="#m3421748363" x="90" y="228.739366" style="stroke: #000000; stroke-width: 0.8"/>
      </g>
     </g>
     <g id="text_24">
      <!-- 0.2 -->
      <g transform="translate(67.096875 232.538585) scale(0.1 -0.1)">
       <use xlink:href="#DejaVuSans-30"/>
       <use xlink:href="#DejaVuSans-2e" x="63.623047"/>
       <use xlink:href="#DejaVuSans-32" x="95.410156"/>
      </g>
     </g>
    </g>
    <g id="ytick_4">
     <g id="line2d_24">
      <g>
       <use xlink:href="#m3421748363" x="90" y="185.396289" style="stroke: #000000; stroke-width: 0.8"/>
      </g>
     </g>
     <g id="text_25">
      <!-- 0.3 -->
      <g transform="translate(67.096875 189.195508) scale(0.1 -0.1)">
       <use xlink:href="#DejaVuSans-30"/>
       <use xlink:href="#DejaVuSans-2e" x="63.623047"/>
       <use xlink:href="#DejaVuSans-33" x="95.410156"/>
      </g>
     </g>
    </g>
    <g id="ytick_5">
     <g id="line2d_25">
      <g>
       <use xlink:href="#m3421748363" x="90" y="142.053212" style="stroke: #000000; stroke-width: 0.8"/>
      </g>
     </g>
     <g id="text_26">
      <!-- 0.4 -->
      <g transform="translate(67.096875 145.852431) scale(0.1 -0.1)">
       <use xlink:href="#DejaVuSans-30"/>
       <use xlink:href="#DejaVuSans-2e" x="63.623047"/>
       <use xlink:href="#DejaVuSans-34" x="95.410156"/>
      </g>
     </g>
    </g>
    <g id="ytick_6">
     <g id="line2d_26">
      <g>
       <use xlink:href="#m3421748363" x="90" y="98.710135" style="stroke: #000000; stroke-width: 0.8"/>
      </g>
     </g>
     <g id="text_27">
      <!-- 0.5 -->
      <g transform="translate(67.096875 102.509353) scale(0.1 -0.1)">
       <use xlink:href="#DejaVuSans-30"/>
       <use xlink:href="#DejaVuSans-2e" x="63.623047"/>
       <use xlink:href="#DejaVuSans-35" x="95.410156"/>
      </g>
     </g>
    </g>
    <g id="ytick_7">
     <g id="line2d_27">
      <g>
       <use xlink:href="#m3421748363" x="90" y="55.367057" style="stroke: #000000; stroke-width: 0.8"/>
      </g>
     </g>
     <g id="text_28">
      <!-- 0.6 -->
      <g transform="translate(67.096875 59.166276) scale(0.1 -0.1)">
       <use xlink:href="#DejaVuSans-30"/>
       <use xlink:href="#DejaVuSans-2e" x="63.623047"/>
       <use xlink:href="#DejaVuSans-36" x="95.410156"/>
      </g>
     </g>
    </g>
    <g id="text_29">
     <!-- Loss -->
     <g transform="translate(61.017187 192.767187) rotate(-90) scale(0.1 -0.1)">
      <defs>
       <path id="DejaVuSans-4c" d="M 628 4666 
L 1259 4666 
L 1259 531 
L 3531 531 
L 3531 0 
L 628 0 
L 628 4666 
z
" transform="scale(0.015625)"/>
      </defs>
      <use xlink:href="#DejaVuSans-4c"/>
      <use xlink:href="#DejaVuSans-6f" x="53.962891"/>
      <use xlink:href="#DejaVuSans-73" x="115.144531"/>
      <use xlink:href="#DejaVuSans-73" x="167.244141"/>
     </g>
    </g>
   </g>
   <g id="line2d_28">
    <path d="M 115.363636 55.8 
L 120.487603 79.18085 
L 125.61157 105.230989 
L 130.735537 138.391728 
L 135.859504 166.726568 
L 140.983471 189.110844 
L 146.107438 203.120543 
L 151.231405 212.943798 
L 156.355372 221.496687 
L 161.479339 229.800223 
L 166.603306 234.310278 
L 171.727273 238.558331 
L 176.85124 243.633766 
L 181.975207 247.280846 
L 187.099174 248.160285 
L 192.22314 252.060432 
L 197.347107 255.849179 
L 202.471074 259.692616 
L 207.595041 257.153496 
L 212.719008 262.302704 
L 217.842975 264.059523 
L 222.966942 267.762645 
L 228.090909 265.782541 
L 233.214876 270.741741 
L 238.338843 271.84298 
L 243.46281 273.45203 
L 248.586777 270.256172 
L 253.710744 273.150191 
L 258.834711 273.775655 
L 263.958678 276.099408 
L 269.082645 278.925673 
L 274.206612 277.970768 
L 279.330579 273.715962 
L 284.454545 281.710527 
L 289.578512 277.562986 
L 294.702479 283.43994 
L 299.826446 285.071094 
L 304.950413 283.652635 
L 310.07438 279.840783 
L 315.198347 284.75588 
L 320.322314 287.225595 
L 325.446281 288.179751 
L 330.570248 284.266634 
L 335.694215 283.549903 
L 340.818182 287.334301 
L 345.942149 289.86722 
L 351.066116 291.242494 
L 356.190083 291.127414 
L 361.31405 291.000435 
L 366.438017 282.837807 
L 371.561983 281.070334 
L 376.68595 291.594841 
L 381.809917 293.659789 
L 386.933884 294.494965 
L 392.057851 295.172442 
L 397.181818 295.886577 
L 402.305785 296.360676 
L 407.429752 296.139862 
L 412.553719 280.014402 
L 417.677686 287.159794 
L 422.801653 293.619382 
L 427.92562 295.993572 
L 433.049587 296.743893 
L 438.173554 298.572886 
L 443.297521 299.46963 
L 448.421488 299.721888 
L 453.545455 300.411542 
L 458.669421 300.695915 
L 463.793388 300.809354 
L 468.917355 295.841133 
L 474.041322 292.627999 
L 479.165289 294.536145 
L 484.289256 300.840562 
L 489.413223 302.504051 
L 494.53719 303.124054 
L 499.661157 303.530869 
L 504.785124 303.777722 
L 509.909091 303.959738 
L 515.033058 304.167148 
L 520.157025 304.414732 
L 525.280992 304.431084 
L 530.404959 304.606094 
L 535.528926 304.708385 
L 540.652893 304.788761 
L 545.77686 305.076509 
L 550.900826 305.513164 
L 556.024793 304.692809 
L 561.14876 305.036012 
L 566.272727 290.09956 
L 571.396694 300.573448 
L 576.520661 304.756538 
L 581.644628 306.350701 
L 586.768595 306.934299 
L 591.892562 307.274062 
L 597.016529 307.359456 
L 602.140496 307.641603 
L 607.264463 307.636907 
L 612.38843 307.556899 
L 617.512397 307.726603 
L 622.636364 307.8 
" clip-path="url(#p33db82a952)" style="fill: none; stroke: #1f77b4; stroke-width: 1.5; stroke-linecap: square"/>
    <defs>
     <path id="m0de5562f50" d="M 0 1.5 
C 0.397805 1.5 0.77937 1.341951 1.06066 1.06066 
C 1.341951 0.77937 1.5 0.397805 1.5 0 
C 1.5 -0.397805 1.341951 -0.77937 1.06066 -1.06066 
C 0.77937 -1.341951 0.397805 -1.5 0 -1.5 
C -0.397805 -1.5 -0.77937 -1.341951 -1.06066 -1.06066 
C -1.341951 -0.77937 -1.5 -0.397805 -1.5 0 
C -1.5 0.397805 -1.341951 0.77937 -1.06066 1.06066 
C -0.77937 1.341951 -0.397805 1.5 0 1.5 
z
" style="stroke: #1f77b4"/>
    </defs>
    <g clip-path="url(#p33db82a952)">
     <use xlink:href="#m0de5562f50" x="115.363636" y="55.8" style="fill: #1f77b4; stroke: #1f77b4"/>
     <use xlink:href="#m0de5562f50" x="120.487603" y="79.18085" style="fill: #1f77b4; stroke: #1f77b4"/>
     <use xlink:href="#m0de5562f50" x="125.61157" y="105.230989" style="fill: #1f77b4; stroke: #1f77b4"/>
     <use xlink:href="#m0de5562f50" x="130.735537" y="138.391728" style="fill: #1f77b4; stroke: #1f77b4"/>
     <use xlink:href="#m0de5562f50" x="135.859504" y="166.726568" style="fill: #1f77b4; stroke: #1f77b4"/>
     <use xlink:href="#m0de5562f50" x="140.983471" y="189.110844" style="fill: #1f77b4; stroke: #1f77b4"/>
     <use xlink:href="#m0de5562f50" x="146.107438" y="203.120543" style="fill: #1f77b4; stroke: #1f77b4"/>
     <use xlink:href="#m0de5562f50" x="151.231405" y="212.943798" style="fill: #1f77b4; stroke: #1f77b4"/>
     <use xlink:href="#m0de5562f50" x="156.355372" y="221.496687" style="fill: #1f77b4; stroke: #1f77b4"/>
     <use xlink:href="#m0de5562f50" x="161.479339" y="229.800223" style="fill: #1f77b4; stroke: #1f77b4"/>
     <use xlink:href="#m0de5562f50" x="166.603306" y="234.310278" style="fill: #1f77b4; stroke: #1f77b4"/>
     <use xlink:href="#m0de5562f50" x="171.727273" y="238.558331" style="fill: #1f77b4; stroke: #1f77b4"/>
     <use xlink:href="#m0de5562f50" x="176.85124" y="243.633766" style="fill: #1f77b4; stroke: #1f77b4"/>
     <use xlink:href="#m0de5562f50" x="181.975207" y="247.280846" style="fill: #1f77b4; stroke: #1f77b4"/>
     <use xlink:href="#m0de5562f50" x="187.099174" y="248.160285" style="fill: #1f77b4; stroke: #1f77b4"/>
     <use xlink:href="#m0de5562f50" x="192.22314" y="252.060432" style="fill: #1f77b4; stroke: #1f77b4"/>
     <use xlink:href="#m0de5562f50" x="197.347107" y="255.849179" style="fill: #1f77b4; stroke: #1f77b4"/>
     <use xlink:href="#m0de5562f50" x="202.471074" y="259.692616" style="fill: #1f77b4; stroke: #1f77b4"/>
     <use xlink:href="#m0de5562f50" x="207.595041" y="257.153496" style="fill: #1f77b4; stroke: #1f77b4"/>
     <use xlink:href="#m0de5562f50" x="212.719008" y="262.302704" style="fill: #1f77b4; stroke: #1f77b4"/>
     <use xlink:href="#m0de5562f50" x="217.842975" y="264.059523" style="fill: #1f77b4; stroke: #1f77b4"/>
     <use xlink:href="#m0de5562f50" x="222.966942" y="267.762645" style="fill: #1f77b4; stroke: #1f77b4"/>
     <use xlink:href="#m0de5562f50" x="228.090909" y="265.782541" style="fill: #1f77b4; stroke: #1f77b4"/>
     <use xlink:href="#m0de5562f50" x="233.214876" y="270.741741" style="fill: #1f77b4; stroke: #1f77b4"/>
     <use xlink:href="#m0de5562f50" x="238.338843" y="271.84298" style="fill: #1f77b4; stroke: #1f77b4"/>
     <use xlink:href="#m0de5562f50" x="243.46281" y="273.45203" style="fill: #1f77b4; stroke: #1f77b4"/>
     <use xlink:href="#m0de5562f50" x="248.586777" y="270.256172" style="fill: #1f77b4; stroke: #1f77b4"/>
     <use xlink:href="#m0de5562f50" x="253.710744" y="273.150191" style="fill: #1f77b4; stroke: #1f77b4"/>
     <use xlink:href="#m0de5562f50" x="258.834711" y="273.775655" style="fill: #1f77b4; stroke: #1f77b4"/>
     <use xlink:href="#m0de5562f50" x="263.958678" y="276.099408" style="fill: #1f77b4; stroke: #1f77b4"/>
     <use xlink:href="#m0de5562f50" x="269.082645" y="278.925673" style="fill: #1f77b4; stroke: #1f77b4"/>
     <use xlink:href="#m0de5562f50" x="274.206612" y="277.970768" style="fill: #1f77b4; stroke: #1f77b4"/>
     <use xlink:href="#m0de5562f50" x="279.330579" y="273.715962" style="fill: #1f77b4; stroke: #1f77b4"/>
     <use xlink:href="#m0de5562f50" x="284.454545" y="281.710527" style="fill: #1f77b4; stroke: #1f77b4"/>
     <use xlink:href="#m0de5562f50" x="289.578512" y="277.562986" style="fill: #1f77b4; stroke: #1f77b4"/>
     <use xlink:href="#m0de5562f50" x="294.702479" y="283.43994" style="fill: #1f77b4; stroke: #1f77b4"/>
     <use xlink:href="#m0de5562f50" x="299.826446" y="285.071094" style="fill: #1f77b4; stroke: #1f77b4"/>
     <use xlink:href="#m0de5562f50" x="304.950413" y="283.652635" style="fill: #1f77b4; stroke: #1f77b4"/>
     <use xlink:href="#m0de5562f50" x="310.07438" y="279.840783" style="fill: #1f77b4; stroke: #1f77b4"/>
     <use xlink:href="#m0de5562f50" x="315.198347" y="284.75588" style="fill: #1f77b4; stroke: #1f77b4"/>
     <use xlink:href="#m0de5562f50" x="320.322314" y="287.225595" style="fill: #1f77b4; stroke: #1f77b4"/>
     <use xlink:href="#m0de5562f50" x="325.446281" y="288.179751" style="fill: #1f77b4; stroke: #1f77b4"/>
     <use xlink:href="#m0de5562f50" x="330.570248" y="284.266634" style="fill: #1f77b4; stroke: #1f77b4"/>
     <use xlink:href="#m0de5562f50" x="335.694215" y="283.549903" style="fill: #1f77b4; stroke: #1f77b4"/>
     <use xlink:href="#m0de5562f50" x="340.818182" y="287.334301" style="fill: #1f77b4; stroke: #1f77b4"/>
     <use xlink:href="#m0de5562f50" x="345.942149" y="289.86722" style="fill: #1f77b4; stroke: #1f77b4"/>
     <use xlink:href="#m0de5562f50" x="351.066116" y="291.242494" style="fill: #1f77b4; stroke: #1f77b4"/>
     <use xlink:href="#m0de5562f50" x="356.190083" y="291.127414" style="fill: #1f77b4; stroke: #1f77b4"/>
     <use xlink:href="#m0de5562f50" x="361.31405" y="291.000435" style="fill: #1f77b4; stroke: #1f77b4"/>
     <use xlink:href="#m0de5562f50" x="366.438017" y="282.837807" style="fill: #1f77b4; stroke: #1f77b4"/>
     <use xlink:href="#m0de5562f50" x="371.561983" y="281.070334" style="fill: #1f77b4; stroke: #1f77b4"/>
     <use xlink:href="#m0de5562f50" x="376.68595" y="291.594841" style="fill: #1f77b4; stroke: #1f77b4"/>
     <use xlink:href="#m0de5562f50" x="381.809917" y="293.659789" style="fill: #1f77b4; stroke: #1f77b4"/>
     <use xlink:href="#m0de5562f50" x="386.933884" y="294.494965" style="fill: #1f77b4; stroke: #1f77b4"/>
     <use xlink:href="#m0de5562f50" x="392.057851" y="295.172442" style="fill: #1f77b4; stroke: #1f77b4"/>
     <use xlink:href="#m0de5562f50" x="397.181818" y="295.886577" style="fill: #1f77b4; stroke: #1f77b4"/>
     <use xlink:href="#m0de5562f50" x="402.305785" y="296.360676" style="fill: #1f77b4; stroke: #1f77b4"/>
     <use xlink:href="#m0de5562f50" x="407.429752" y="296.139862" style="fill: #1f77b4; stroke: #1f77b4"/>
     <use xlink:href="#m0de5562f50" x="412.553719" y="280.014402" style="fill: #1f77b4; stroke: #1f77b4"/>
     <use xlink:href="#m0de5562f50" x="417.677686" y="287.159794" style="fill: #1f77b4; stroke: #1f77b4"/>
     <use xlink:href="#m0de5562f50" x="422.801653" y="293.619382" style="fill: #1f77b4; stroke: #1f77b4"/>
     <use xlink:href="#m0de5562f50" x="427.92562" y="295.993572" style="fill: #1f77b4; stroke: #1f77b4"/>
     <use xlink:href="#m0de5562f50" x="433.049587" y="296.743893" style="fill: #1f77b4; stroke: #1f77b4"/>
     <use xlink:href="#m0de5562f50" x="438.173554" y="298.572886" style="fill: #1f77b4; stroke: #1f77b4"/>
     <use xlink:href="#m0de5562f50" x="443.297521" y="299.46963" style="fill: #1f77b4; stroke: #1f77b4"/>
     <use xlink:href="#m0de5562f50" x="448.421488" y="299.721888" style="fill: #1f77b4; stroke: #1f77b4"/>
     <use xlink:href="#m0de5562f50" x="453.545455" y="300.411542" style="fill: #1f77b4; stroke: #1f77b4"/>
     <use xlink:href="#m0de5562f50" x="458.669421" y="300.695915" style="fill: #1f77b4; stroke: #1f77b4"/>
     <use xlink:href="#m0de5562f50" x="463.793388" y="300.809354" style="fill: #1f77b4; stroke: #1f77b4"/>
     <use xlink:href="#m0de5562f50" x="468.917355" y="295.841133" style="fill: #1f77b4; stroke: #1f77b4"/>
     <use xlink:href="#m0de5562f50" x="474.041322" y="292.627999" style="fill: #1f77b4; stroke: #1f77b4"/>
     <use xlink:href="#m0de5562f50" x="479.165289" y="294.536145" style="fill: #1f77b4; stroke: #1f77b4"/>
     <use xlink:href="#m0de5562f50" x="484.289256" y="300.840562" style="fill: #1f77b4; stroke: #1f77b4"/>
     <use xlink:href="#m0de5562f50" x="489.413223" y="302.504051" style="fill: #1f77b4; stroke: #1f77b4"/>
     <use xlink:href="#m0de5562f50" x="494.53719" y="303.124054" style="fill: #1f77b4; stroke: #1f77b4"/>
     <use xlink:href="#m0de5562f50" x="499.661157" y="303.530869" style="fill: #1f77b4; stroke: #1f77b4"/>
     <use xlink:href="#m0de5562f50" x="504.785124" y="303.777722" style="fill: #1f77b4; stroke: #1f77b4"/>
     <use xlink:href="#m0de5562f50" x="509.909091" y="303.959738" style="fill: #1f77b4; stroke: #1f77b4"/>
     <use xlink:href="#m0de5562f50" x="515.033058" y="304.167148" style="fill: #1f77b4; stroke: #1f77b4"/>
     <use xlink:href="#m0de5562f50" x="520.157025" y="304.414732" style="fill: #1f77b4; stroke: #1f77b4"/>
     <use xlink:href="#m0de5562f50" x="525.280992" y="304.431084" style="fill: #1f77b4; stroke: #1f77b4"/>
     <use xlink:href="#m0de5562f50" x="530.404959" y="304.606094" style="fill: #1f77b4; stroke: #1f77b4"/>
     <use xlink:href="#m0de5562f50" x="535.528926" y="304.708385" style="fill: #1f77b4; stroke: #1f77b4"/>
     <use xlink:href="#m0de5562f50" x="540.652893" y="304.788761" style="fill: #1f77b4; stroke: #1f77b4"/>
     <use xlink:href="#m0de5562f50" x="545.77686" y="305.076509" style="fill: #1f77b4; stroke: #1f77b4"/>
     <use xlink:href="#m0de5562f50" x="550.900826" y="305.513164" style="fill: #1f77b4; stroke: #1f77b4"/>
     <use xlink:href="#m0de5562f50" x="556.024793" y="304.692809" style="fill: #1f77b4; stroke: #1f77b4"/>
     <use xlink:href="#m0de5562f50" x="561.14876" y="305.036012" style="fill: #1f77b4; stroke: #1f77b4"/>
     <use xlink:href="#m0de5562f50" x="566.272727" y="290.09956" style="fill: #1f77b4; stroke: #1f77b4"/>
     <use xlink:href="#m0de5562f50" x="571.396694" y="300.573448" style="fill: #1f77b4; stroke: #1f77b4"/>
     <use xlink:href="#m0de5562f50" x="576.520661" y="304.756538" style="fill: #1f77b4; stroke: #1f77b4"/>
     <use xlink:href="#m0de5562f50" x="581.644628" y="306.350701" style="fill: #1f77b4; stroke: #1f77b4"/>
     <use xlink:href="#m0de5562f50" x="586.768595" y="306.934299" style="fill: #1f77b4; stroke: #1f77b4"/>
     <use xlink:href="#m0de5562f50" x="591.892562" y="307.274062" style="fill: #1f77b4; stroke: #1f77b4"/>
     <use xlink:href="#m0de5562f50" x="597.016529" y="307.359456" style="fill: #1f77b4; stroke: #1f77b4"/>
     <use xlink:href="#m0de5562f50" x="602.140496" y="307.641603" style="fill: #1f77b4; stroke: #1f77b4"/>
     <use xlink:href="#m0de5562f50" x="607.264463" y="307.636907" style="fill: #1f77b4; stroke: #1f77b4"/>
     <use xlink:href="#m0de5562f50" x="612.38843" y="307.556899" style="fill: #1f77b4; stroke: #1f77b4"/>
     <use xlink:href="#m0de5562f50" x="617.512397" y="307.726603" style="fill: #1f77b4; stroke: #1f77b4"/>
     <use xlink:href="#m0de5562f50" x="622.636364" y="307.8" style="fill: #1f77b4; stroke: #1f77b4"/>
    </g>
   </g>
   <g id="line2d_29">
    <path d="M 115.363636 65.779465 
L 120.487603 92.150446 
L 125.61157 98.42735 
L 130.735537 153.913417 
L 135.859504 179.34105 
L 140.983471 192.755151 
L 146.107438 201.43878 
L 151.231405 209.217502 
L 156.355372 215.384711 
L 161.479339 223.484463 
L 166.603306 209.491824 
L 171.727273 220.631838 
L 176.85124 209.154779 
L 181.975207 225.050762 
L 187.099174 226.877293 
L 192.22314 229.174389 
L 197.347107 233.75478 
L 202.471074 229.216776 
L 207.595041 225.538056 
L 212.719008 232.948803 
L 217.842975 234.155557 
L 222.966942 229.679046 
L 228.090909 225.808145 
L 233.214876 227.691705 
L 238.338843 227.212877 
L 243.46281 230.344039 
L 248.586777 229.781951 
L 253.710744 227.440315 
L 258.834711 220.795279 
L 263.958678 224.620451 
L 269.082645 226.365813 
L 274.206612 188.546199 
L 279.330579 229.384431 
L 284.454545 227.075437 
L 289.578512 223.213596 
L 294.702479 224.204001 
L 299.826446 223.919312 
L 304.950413 216.738065 
L 310.07438 223.687776 
L 315.198347 218.031696 
L 320.322314 217.196825 
L 325.446281 220.049699 
L 330.570248 192.782001 
L 335.694215 213.024466 
L 340.818182 214.368567 
L 345.942149 213.161605 
L 351.066116 208.963758 
L 356.190083 213.091386 
L 361.31405 213.371187 
L 366.438017 213.05257 
L 371.561983 215.733046 
L 376.68595 208.31388 
L 381.809917 202.304268 
L 386.933884 199.759752 
L 392.057851 199.442287 
L 397.181818 191.919886 
L 402.305785 192.443299 
L 407.429752 190.262299 
L 412.553719 209.309238 
L 417.677686 211.12863 
L 422.801653 210.919677 
L 427.92562 204.074043 
L 433.049587 198.870911 
L 438.173554 190.536779 
L 443.297521 184.280075 
L 448.421488 185.75839 
L 453.545455 187.222265 
L 458.669421 179.165169 
L 463.793388 175.680396 
L 468.917355 197.209867 
L 474.041322 169.298743 
L 479.165289 189.905687 
L 484.289256 186.782217 
L 489.413223 178.201119 
L 494.53719 176.951243 
L 499.661157 173.098106 
L 504.785124 172.486932 
L 509.909091 171.004348 
L 515.033058 163.926192 
L 520.157025 164.19849 
L 525.280992 160.816498 
L 530.404959 157.467935 
L 535.528926 156.641914 
L 540.652893 158.584226 
L 545.77686 154.413532 
L 550.900826 155.641875 
L 556.024793 151.732271 
L 561.14876 146.701542 
L 566.272727 188.939394 
L 571.396694 185.738106 
L 576.520661 163.703271 
L 581.644628 155.035291 
L 586.768595 152.412177 
L 591.892562 143.665542 
L 597.016529 142.459282 
L 602.140496 137.363321 
L 607.264463 136.161961 
L 612.38843 136.175982 
L 617.512397 140.429437 
L 622.636364 135.313048 
" clip-path="url(#p33db82a952)" style="fill: none; stroke: #ff7f0e; stroke-width: 1.5; stroke-linecap: square"/>
    <defs>
     <path id="m9eed30e7eb" d="M 0 1.5 
C 0.397805 1.5 0.77937 1.341951 1.06066 1.06066 
C 1.341951 0.77937 1.5 0.397805 1.5 0 
C 1.5 -0.397805 1.341951 -0.77937 1.06066 -1.06066 
C 0.77937 -1.341951 0.397805 -1.5 0 -1.5 
C -0.397805 -1.5 -0.77937 -1.341951 -1.06066 -1.06066 
C -1.341951 -0.77937 -1.5 -0.397805 -1.5 0 
C -1.5 0.397805 -1.341951 0.77937 -1.06066 1.06066 
C -0.77937 1.341951 -0.397805 1.5 0 1.5 
z
" style="stroke: #ff7f0e"/>
    </defs>
    <g clip-path="url(#p33db82a952)">
     <use xlink:href="#m9eed30e7eb" x="115.363636" y="65.779465" style="fill: #ff7f0e; stroke: #ff7f0e"/>
     <use xlink:href="#m9eed30e7eb" x="120.487603" y="92.150446" style="fill: #ff7f0e; stroke: #ff7f0e"/>
     <use xlink:href="#m9eed30e7eb" x="125.61157" y="98.42735" style="fill: #ff7f0e; stroke: #ff7f0e"/>
     <use xlink:href="#m9eed30e7eb" x="130.735537" y="153.913417" style="fill: #ff7f0e; stroke: #ff7f0e"/>
     <use xlink:href="#m9eed30e7eb" x="135.859504" y="179.34105" style="fill: #ff7f0e; stroke: #ff7f0e"/>
     <use xlink:href="#m9eed30e7eb" x="140.983471" y="192.755151" style="fill: #ff7f0e; stroke: #ff7f0e"/>
     <use xlink:href="#m9eed30e7eb" x="146.107438" y="201.43878" style="fill: #ff7f0e; stroke: #ff7f0e"/>
     <use xlink:href="#m9eed30e7eb" x="151.231405" y="209.217502" style="fill: #ff7f0e; stroke: #ff7f0e"/>
     <use xlink:href="#m9eed30e7eb" x="156.355372" y="215.384711" style="fill: #ff7f0e; stroke: #ff7f0e"/>
     <use xlink:href="#m9eed30e7eb" x="161.479339" y="223.484463" style="fill: #ff7f0e; stroke: #ff7f0e"/>
     <use xlink:href="#m9eed30e7eb" x="166.603306" y="209.491824" style="fill: #ff7f0e; stroke: #ff7f0e"/>
     <use xlink:href="#m9eed30e7eb" x="171.727273" y="220.631838" style="fill: #ff7f0e; stroke: #ff7f0e"/>
     <use xlink:href="#m9eed30e7eb" x="176.85124" y="209.154779" style="fill: #ff7f0e; stroke: #ff7f0e"/>
     <use xlink:href="#m9eed30e7eb" x="181.975207" y="225.050762" style="fill: #ff7f0e; stroke: #ff7f0e"/>
     <use xlink:href="#m9eed30e7eb" x="187.099174" y="226.877293" style="fill: #ff7f0e; stroke: #ff7f0e"/>
     <use xlink:href="#m9eed30e7eb" x="192.22314" y="229.174389" style="fill: #ff7f0e; stroke: #ff7f0e"/>
     <use xlink:href="#m9eed30e7eb" x="197.347107" y="233.75478" style="fill: #ff7f0e; stroke: #ff7f0e"/>
     <use xlink:href="#m9eed30e7eb" x="202.471074" y="229.216776" style="fill: #ff7f0e; stroke: #ff7f0e"/>
     <use xlink:href="#m9eed30e7eb" x="207.595041" y="225.538056" style="fill: #ff7f0e; stroke: #ff7f0e"/>
     <use xlink:href="#m9eed30e7eb" x="212.719008" y="232.948803" style="fill: #ff7f0e; stroke: #ff7f0e"/>
     <use xlink:href="#m9eed30e7eb" x="217.842975" y="234.155557" style="fill: #ff7f0e; stroke: #ff7f0e"/>
     <use xlink:href="#m9eed30e7eb" x="222.966942" y="229.679046" style="fill: #ff7f0e; stroke: #ff7f0e"/>
     <use xlink:href="#m9eed30e7eb" x="228.090909" y="225.808145" style="fill: #ff7f0e; stroke: #ff7f0e"/>
     <use xlink:href="#m9eed30e7eb" x="233.214876" y="227.691705" style="fill: #ff7f0e; stroke: #ff7f0e"/>
     <use xlink:href="#m9eed30e7eb" x="238.338843" y="227.212877" style="fill: #ff7f0e; stroke: #ff7f0e"/>
     <use xlink:href="#m9eed30e7eb" x="243.46281" y="230.344039" style="fill: #ff7f0e; stroke: #ff7f0e"/>
     <use xlink:href="#m9eed30e7eb" x="248.586777" y="229.781951" style="fill: #ff7f0e; stroke: #ff7f0e"/>
     <use xlink:href="#m9eed30e7eb" x="253.710744" y="227.440315" style="fill: #ff7f0e; stroke: #ff7f0e"/>
     <use xlink:href="#m9eed30e7eb" x="258.834711" y="220.795279" style="fill: #ff7f0e; stroke: #ff7f0e"/>
     <use xlink:href="#m9eed30e7eb" x="263.958678" y="224.620451" style="fill: #ff7f0e; stroke: #ff7f0e"/>
     <use xlink:href="#m9eed30e7eb" x="269.082645" y="226.365813" style="fill: #ff7f0e; stroke: #ff7f0e"/>
     <use xlink:href="#m9eed30e7eb" x="274.206612" y="188.546199" style="fill: #ff7f0e; stroke: #ff7f0e"/>
     <use xlink:href="#m9eed30e7eb" x="279.330579" y="229.384431" style="fill: #ff7f0e; stroke: #ff7f0e"/>
     <use xlink:href="#m9eed30e7eb" x="284.454545" y="227.075437" style="fill: #ff7f0e; stroke: #ff7f0e"/>
     <use xlink:href="#m9eed30e7eb" x="289.578512" y="223.213596" style="fill: #ff7f0e; stroke: #ff7f0e"/>
     <use xlink:href="#m9eed30e7eb" x="294.702479" y="224.204001" style="fill: #ff7f0e; stroke: #ff7f0e"/>
     <use xlink:href="#m9eed30e7eb" x="299.826446" y="223.919312" style="fill: #ff7f0e; stroke: #ff7f0e"/>
     <use xlink:href="#m9eed30e7eb" x="304.950413" y="216.738065" style="fill: #ff7f0e; stroke: #ff7f0e"/>
     <use xlink:href="#m9eed30e7eb" x="310.07438" y="223.687776" style="fill: #ff7f0e; stroke: #ff7f0e"/>
     <use xlink:href="#m9eed30e7eb" x="315.198347" y="218.031696" style="fill: #ff7f0e; stroke: #ff7f0e"/>
     <use xlink:href="#m9eed30e7eb" x="320.322314" y="217.196825" style="fill: #ff7f0e; stroke: #ff7f0e"/>
     <use xlink:href="#m9eed30e7eb" x="325.446281" y="220.049699" style="fill: #ff7f0e; stroke: #ff7f0e"/>
     <use xlink:href="#m9eed30e7eb" x="330.570248" y="192.782001" style="fill: #ff7f0e; stroke: #ff7f0e"/>
     <use xlink:href="#m9eed30e7eb" x="335.694215" y="213.024466" style="fill: #ff7f0e; stroke: #ff7f0e"/>
     <use xlink:href="#m9eed30e7eb" x="340.818182" y="214.368567" style="fill: #ff7f0e; stroke: #ff7f0e"/>
     <use xlink:href="#m9eed30e7eb" x="345.942149" y="213.161605" style="fill: #ff7f0e; stroke: #ff7f0e"/>
     <use xlink:href="#m9eed30e7eb" x="351.066116" y="208.963758" style="fill: #ff7f0e; stroke: #ff7f0e"/>
     <use xlink:href="#m9eed30e7eb" x="356.190083" y="213.091386" style="fill: #ff7f0e; stroke: #ff7f0e"/>
     <use xlink:href="#m9eed30e7eb" x="361.31405" y="213.371187" style="fill: #ff7f0e; stroke: #ff7f0e"/>
     <use xlink:href="#m9eed30e7eb" x="366.438017" y="213.05257" style="fill: #ff7f0e; stroke: #ff7f0e"/>
     <use xlink:href="#m9eed30e7eb" x="371.561983" y="215.733046" style="fill: #ff7f0e; stroke: #ff7f0e"/>
     <use xlink:href="#m9eed30e7eb" x="376.68595" y="208.31388" style="fill: #ff7f0e; stroke: #ff7f0e"/>
     <use xlink:href="#m9eed30e7eb" x="381.809917" y="202.304268" style="fill: #ff7f0e; stroke: #ff7f0e"/>
     <use xlink:href="#m9eed30e7eb" x="386.933884" y="199.759752" style="fill: #ff7f0e; stroke: #ff7f0e"/>
     <use xlink:href="#m9eed30e7eb" x="392.057851" y="199.442287" style="fill: #ff7f0e; stroke: #ff7f0e"/>
     <use xlink:href="#m9eed30e7eb" x="397.181818" y="191.919886" style="fill: #ff7f0e; stroke: #ff7f0e"/>
     <use xlink:href="#m9eed30e7eb" x="402.305785" y="192.443299" style="fill: #ff7f0e; stroke: #ff7f0e"/>
     <use xlink:href="#m9eed30e7eb" x="407.429752" y="190.262299" style="fill: #ff7f0e; stroke: #ff7f0e"/>
     <use xlink:href="#m9eed30e7eb" x="412.553719" y="209.309238" style="fill: #ff7f0e; stroke: #ff7f0e"/>
     <use xlink:href="#m9eed30e7eb" x="417.677686" y="211.12863" style="fill: #ff7f0e; stroke: #ff7f0e"/>
     <use xlink:href="#m9eed30e7eb" x="422.801653" y="210.919677" style="fill: #ff7f0e; stroke: #ff7f0e"/>
     <use xlink:href="#m9eed30e7eb" x="427.92562" y="204.074043" style="fill: #ff7f0e; stroke: #ff7f0e"/>
     <use xlink:href="#m9eed30e7eb" x="433.049587" y="198.870911" style="fill: #ff7f0e; stroke: #ff7f0e"/>
     <use xlink:href="#m9eed30e7eb" x="438.173554" y="190.536779" style="fill: #ff7f0e; stroke: #ff7f0e"/>
     <use xlink:href="#m9eed30e7eb" x="443.297521" y="184.280075" style="fill: #ff7f0e; stroke: #ff7f0e"/>
     <use xlink:href="#m9eed30e7eb" x="448.421488" y="185.75839" style="fill: #ff7f0e; stroke: #ff7f0e"/>
     <use xlink:href="#m9eed30e7eb" x="453.545455" y="187.222265" style="fill: #ff7f0e; stroke: #ff7f0e"/>
     <use xlink:href="#m9eed30e7eb" x="458.669421" y="179.165169" style="fill: #ff7f0e; stroke: #ff7f0e"/>
     <use xlink:href="#m9eed30e7eb" x="463.793388" y="175.680396" style="fill: #ff7f0e; stroke: #ff7f0e"/>
     <use xlink:href="#m9eed30e7eb" x="468.917355" y="197.209867" style="fill: #ff7f0e; stroke: #ff7f0e"/>
     <use xlink:href="#m9eed30e7eb" x="474.041322" y="169.298743" style="fill: #ff7f0e; stroke: #ff7f0e"/>
     <use xlink:href="#m9eed30e7eb" x="479.165289" y="189.905687" style="fill: #ff7f0e; stroke: #ff7f0e"/>
     <use xlink:href="#m9eed30e7eb" x="484.289256" y="186.782217" style="fill: #ff7f0e; stroke: #ff7f0e"/>
     <use xlink:href="#m9eed30e7eb" x="489.413223" y="178.201119" style="fill: #ff7f0e; stroke: #ff7f0e"/>
     <use xlink:href="#m9eed30e7eb" x="494.53719" y="176.951243" style="fill: #ff7f0e; stroke: #ff7f0e"/>
     <use xlink:href="#m9eed30e7eb" x="499.661157" y="173.098106" style="fill: #ff7f0e; stroke: #ff7f0e"/>
     <use xlink:href="#m9eed30e7eb" x="504.785124" y="172.486932" style="fill: #ff7f0e; stroke: #ff7f0e"/>
     <use xlink:href="#m9eed30e7eb" x="509.909091" y="171.004348" style="fill: #ff7f0e; stroke: #ff7f0e"/>
     <use xlink:href="#m9eed30e7eb" x="515.033058" y="163.926192" style="fill: #ff7f0e; stroke: #ff7f0e"/>
     <use xlink:href="#m9eed30e7eb" x="520.157025" y="164.19849" style="fill: #ff7f0e; stroke: #ff7f0e"/>
     <use xlink:href="#m9eed30e7eb" x="525.280992" y="160.816498" style="fill: #ff7f0e; stroke: #ff7f0e"/>
     <use xlink:href="#m9eed30e7eb" x="530.404959" y="157.467935" style="fill: #ff7f0e; stroke: #ff7f0e"/>
     <use xlink:href="#m9eed30e7eb" x="535.528926" y="156.641914" style="fill: #ff7f0e; stroke: #ff7f0e"/>
     <use xlink:href="#m9eed30e7eb" x="540.652893" y="158.584226" style="fill: #ff7f0e; stroke: #ff7f0e"/>
     <use xlink:href="#m9eed30e7eb" x="545.77686" y="154.413532" style="fill: #ff7f0e; stroke: #ff7f0e"/>
     <use xlink:href="#m9eed30e7eb" x="550.900826" y="155.641875" style="fill: #ff7f0e; stroke: #ff7f0e"/>
     <use xlink:href="#m9eed30e7eb" x="556.024793" y="151.732271" style="fill: #ff7f0e; stroke: #ff7f0e"/>
     <use xlink:href="#m9eed30e7eb" x="561.14876" y="146.701542" style="fill: #ff7f0e; stroke: #ff7f0e"/>
     <use xlink:href="#m9eed30e7eb" x="566.272727" y="188.939394" style="fill: #ff7f0e; stroke: #ff7f0e"/>
     <use xlink:href="#m9eed30e7eb" x="571.396694" y="185.738106" style="fill: #ff7f0e; stroke: #ff7f0e"/>
     <use xlink:href="#m9eed30e7eb" x="576.520661" y="163.703271" style="fill: #ff7f0e; stroke: #ff7f0e"/>
     <use xlink:href="#m9eed30e7eb" x="581.644628" y="155.035291" style="fill: #ff7f0e; stroke: #ff7f0e"/>
     <use xlink:href="#m9eed30e7eb" x="586.768595" y="152.412177" style="fill: #ff7f0e; stroke: #ff7f0e"/>
     <use xlink:href="#m9eed30e7eb" x="591.892562" y="143.665542" style="fill: #ff7f0e; stroke: #ff7f0e"/>
     <use xlink:href="#m9eed30e7eb" x="597.016529" y="142.459282" style="fill: #ff7f0e; stroke: #ff7f0e"/>
     <use xlink:href="#m9eed30e7eb" x="602.140496" y="137.363321" style="fill: #ff7f0e; stroke: #ff7f0e"/>
     <use xlink:href="#m9eed30e7eb" x="607.264463" y="136.161961" style="fill: #ff7f0e; stroke: #ff7f0e"/>
     <use xlink:href="#m9eed30e7eb" x="612.38843" y="136.175982" style="fill: #ff7f0e; stroke: #ff7f0e"/>
     <use xlink:href="#m9eed30e7eb" x="617.512397" y="140.429437" style="fill: #ff7f0e; stroke: #ff7f0e"/>
     <use xlink:href="#m9eed30e7eb" x="622.636364" y="135.313048" style="fill: #ff7f0e; stroke: #ff7f0e"/>
    </g>
   </g>
   <g id="patch_3">
    <path d="M 90 320.4 
L 90 43.2 
" style="fill: none; stroke: #000000; stroke-width: 0.8; stroke-linejoin: miter; stroke-linecap: square"/>
   </g>
   <g id="patch_4">
    <path d="M 648 320.4 
L 648 43.2 
" style="fill: none; stroke: #000000; stroke-width: 0.8; stroke-linejoin: miter; stroke-linecap: square"/>
   </g>
   <g id="patch_5">
    <path d="M 90 320.4 
L 648 320.4 
" style="fill: none; stroke: #000000; stroke-width: 0.8; stroke-linejoin: miter; stroke-linecap: square"/>
   </g>
   <g id="patch_6">
    <path d="M 90 43.2 
L 648 43.2 
" style="fill: none; stroke: #000000; stroke-width: 0.8; stroke-linejoin: miter; stroke-linecap: square"/>
   </g>
   <g id="text_30">
    <!-- Learning Curve -->
    <g transform="translate(323.341875 37.2) scale(0.12 -0.12)">
     <defs>
      <path id="DejaVuSans-65" d="M 3597 1894 
L 3597 1613 
L 953 1613 
Q 991 1019 1311 708 
Q 1631 397 2203 397 
Q 2534 397 2845 478 
Q 3156 559 3463 722 
L 3463 178 
Q 3153 47 2828 -22 
Q 2503 -91 2169 -91 
Q 1331 -91 842 396 
Q 353 884 353 1716 
Q 353 2575 817 3079 
Q 1281 3584 2069 3584 
Q 2775 3584 3186 3129 
Q 3597 2675 3597 1894 
z
M 3022 2063 
Q 3016 2534 2758 2815 
Q 2500 3097 2075 3097 
Q 1594 3097 1305 2825 
Q 1016 2553 972 2059 
L 3022 2063 
z
" transform="scale(0.015625)"/>
      <path id="DejaVuSans-61" d="M 2194 1759 
Q 1497 1759 1228 1600 
Q 959 1441 959 1056 
Q 959 750 1161 570 
Q 1363 391 1709 391 
Q 2188 391 2477 730 
Q 2766 1069 2766 1631 
L 2766 1759 
L 2194 1759 
z
M 3341 1997 
L 3341 0 
L 2766 0 
L 2766 531 
Q 2569 213 2275 61 
Q 1981 -91 1556 -91 
Q 1019 -91 701 211 
Q 384 513 384 1019 
Q 384 1609 779 1909 
Q 1175 2209 1959 2209 
L 2766 2209 
L 2766 2266 
Q 2766 2663 2505 2880 
Q 2244 3097 1772 3097 
Q 1472 3097 1187 3025 
Q 903 2953 641 2809 
L 641 3341 
Q 956 3463 1253 3523 
Q 1550 3584 1831 3584 
Q 2591 3584 2966 3190 
Q 3341 2797 3341 1997 
z
" transform="scale(0.015625)"/>
      <path id="DejaVuSans-72" d="M 2631 2963 
Q 2534 3019 2420 3045 
Q 2306 3072 2169 3072 
Q 1681 3072 1420 2755 
Q 1159 2438 1159 1844 
L 1159 0 
L 581 0 
L 581 3500 
L 1159 3500 
L 1159 2956 
Q 1341 3275 1631 3429 
Q 1922 3584 2338 3584 
Q 2397 3584 2469 3576 
Q 2541 3569 2628 3553 
L 2631 2963 
z
" transform="scale(0.015625)"/>
      <path id="DejaVuSans-6e" d="M 3513 2113 
L 3513 0 
L 2938 0 
L 2938 2094 
Q 2938 2591 2744 2837 
Q 2550 3084 2163 3084 
Q 1697 3084 1428 2787 
Q 1159 2491 1159 1978 
L 1159 0 
L 581 0 
L 581 3500 
L 1159 3500 
L 1159 2956 
Q 1366 3272 1645 3428 
Q 1925 3584 2291 3584 
Q 2894 3584 3203 3211 
Q 3513 2838 3513 2113 
z
" transform="scale(0.015625)"/>
      <path id="DejaVuSans-69" d="M 603 3500 
L 1178 3500 
L 1178 0 
L 603 0 
L 603 3500 
z
M 603 4863 
L 1178 4863 
L 1178 4134 
L 603 4134 
L 603 4863 
z
" transform="scale(0.015625)"/>
      <path id="DejaVuSans-67" d="M 2906 1791 
Q 2906 2416 2648 2759 
Q 2391 3103 1925 3103 
Q 1463 3103 1205 2759 
Q 947 2416 947 1791 
Q 947 1169 1205 825 
Q 1463 481 1925 481 
Q 2391 481 2648 825 
Q 2906 1169 2906 1791 
z
M 3481 434 
Q 3481 -459 3084 -895 
Q 2688 -1331 1869 -1331 
Q 1566 -1331 1297 -1286 
Q 1028 -1241 775 -1147 
L 775 -588 
Q 1028 -725 1275 -790 
Q 1522 -856 1778 -856 
Q 2344 -856 2625 -561 
Q 2906 -266 2906 331 
L 2906 616 
Q 2728 306 2450 153 
Q 2172 0 1784 0 
Q 1141 0 747 490 
Q 353 981 353 1791 
Q 353 2603 747 3093 
Q 1141 3584 1784 3584 
Q 2172 3584 2450 3431 
Q 2728 3278 2906 2969 
L 2906 3500 
L 3481 3500 
L 3481 434 
z
" transform="scale(0.015625)"/>
      <path id="DejaVuSans-20" transform="scale(0.015625)"/>
      <path id="DejaVuSans-43" d="M 4122 4306 
L 4122 3641 
Q 3803 3938 3442 4084 
Q 3081 4231 2675 4231 
Q 1875 4231 1450 3742 
Q 1025 3253 1025 2328 
Q 1025 1406 1450 917 
Q 1875 428 2675 428 
Q 3081 428 3442 575 
Q 3803 722 4122 1019 
L 4122 359 
Q 3791 134 3420 21 
Q 3050 -91 2638 -91 
Q 1578 -91 968 557 
Q 359 1206 359 2328 
Q 359 3453 968 4101 
Q 1578 4750 2638 4750 
Q 3056 4750 3426 4639 
Q 3797 4528 4122 4306 
z
" transform="scale(0.015625)"/>
      <path id="DejaVuSans-75" d="M 544 1381 
L 544 3500 
L 1119 3500 
L 1119 1403 
Q 1119 906 1312 657 
Q 1506 409 1894 409 
Q 2359 409 2629 706 
Q 2900 1003 2900 1516 
L 2900 3500 
L 3475 3500 
L 3475 0 
L 2900 0 
L 2900 538 
Q 2691 219 2414 64 
Q 2138 -91 1772 -91 
Q 1169 -91 856 284 
Q 544 659 544 1381 
z
M 1991 3584 
L 1991 3584 
z
" transform="scale(0.015625)"/>
      <path id="DejaVuSans-76" d="M 191 3500 
L 800 3500 
L 1894 563 
L 2988 3500 
L 3597 3500 
L 2284 0 
L 1503 0 
L 191 3500 
z
" transform="scale(0.015625)"/>
     </defs>
     <use xlink:href="#DejaVuSans-4c"/>
     <use xlink:href="#DejaVuSans-65" x="53.962891"/>
     <use xlink:href="#DejaVuSans-61" x="115.486328"/>
     <use xlink:href="#DejaVuSans-72" x="176.765625"/>
     <use xlink:href="#DejaVuSans-6e" x="216.128906"/>
     <use xlink:href="#DejaVuSans-69" x="279.507812"/>
     <use xlink:href="#DejaVuSans-6e" x="307.291016"/>
     <use xlink:href="#DejaVuSans-67" x="370.669922"/>
     <use xlink:href="#DejaVuSans-20" x="434.146484"/>
     <use xlink:href="#DejaVuSans-43" x="465.933594"/>
     <use xlink:href="#DejaVuSans-75" x="535.757812"/>
     <use xlink:href="#DejaVuSans-72" x="599.136719"/>
     <use xlink:href="#DejaVuSans-76" x="640.25"/>
     <use xlink:href="#DejaVuSans-65" x="699.429688"/>
    </g>
   </g>
   <g id="legend_1">
    <g id="patch_7">
     <path d="M 602.159375 80.55625 
L 641 80.55625 
Q 643 80.55625 643 78.55625 
L 643 50.2 
Q 643 48.2 641 48.2 
L 602.159375 48.2 
Q 600.159375 48.2 600.159375 50.2 
L 600.159375 78.55625 
Q 600.159375 80.55625 602.159375 80.55625 
z
" style="fill: #ffffff; opacity: 0.8; stroke: #cccccc; stroke-linejoin: miter"/>
    </g>
    <g id="line2d_30">
     <path d="M 604.159375 56.298437 
L 614.159375 56.298437 
L 624.159375 56.298437 
" style="fill: none; stroke: #1f77b4; stroke-width: 1.5; stroke-linecap: square"/>
     <g>
      <use xlink:href="#m0de5562f50" x="614.159375" y="56.298437" style="fill: #1f77b4; stroke: #1f77b4"/>
     </g>
    </g>
    <g id="text_31">
     <!-- T -->
     <g transform="translate(632.159375 59.798437) scale(0.1 -0.1)">
      <defs>
       <path id="DejaVuSans-54" d="M -19 4666 
L 3928 4666 
L 3928 4134 
L 2272 4134 
L 2272 0 
L 1638 0 
L 1638 4134 
L -19 4134 
L -19 4666 
z
" transform="scale(0.015625)"/>
      </defs>
      <use xlink:href="#DejaVuSans-54"/>
     </g>
    </g>
    <g id="line2d_31">
     <path d="M 604.159375 70.976562 
L 614.159375 70.976562 
L 624.159375 70.976562 
" style="fill: none; stroke: #ff7f0e; stroke-width: 1.5; stroke-linecap: square"/>
     <g>
      <use xlink:href="#m9eed30e7eb" x="614.159375" y="70.976562" style="fill: #ff7f0e; stroke: #ff7f0e"/>
     </g>
    </g>
    <g id="text_32">
     <!-- V -->
     <g transform="translate(632.159375 74.476562) scale(0.1 -0.1)">
      <defs>
       <path id="DejaVuSans-56" d="M 1831 0 
L 50 4666 
L 709 4666 
L 2188 738 
L 3669 4666 
L 4325 4666 
L 2547 0 
L 1831 0 
z
" transform="scale(0.015625)"/>
      </defs>
      <use xlink:href="#DejaVuSans-56"/>
     </g>
    </g>
   </g>
  </g>
 </g>
 <defs>
  <clipPath id="p33db82a952">
   <rect x="90" y="43.2" width="558" height="277.2"/>
  </clipPath>
 </defs>
</svg>
